<svg id="pokenav" xmlns="http://www.w3.org/2000/svg" viewBox="0 0 270.88 365.92">
  <path class="cls-1" style="fill:var(--fill,#1d1d1b);stroke:#1d1d1b;stroke-miterlimit:10;" d="M140.95,138.95a36.69,36.69,0,1,0,36.69,36.69A36.73,36.73,0,0,0,140.95,138.95Zm0,68.23a31.54,31.54,0,1,1,31.54-31.54A31.57,31.57,0,0,1,140.95,207.18Z" transform="translate(-5.31 -2.6)"/>
  <path class="cls-1" style="fill:var(--fill,#1d1d1b);stroke:#1d1d1b;stroke-miterlimit:10;" d="M259.82,162.35q-.37-4.32-.82-8.69l-.09-.84q-.45-4.29-1-8.62C251.89,94.52,235.05,42.91,232.7,39c-2.7-4.5-9.53-5.38-10.29-5.46l-.17,0H197.49v0l-.15-2.21,0-.42q-.14-2.16-.28-4.17l0-.52-.13-1.9,0-.25-.12-1.75,0-.26-.13-1.79,0-.26-.11-1.55V18.2l-.11-1.53,0-.27L196.21,15v-.08l-.09-1.21,0-.24L196,12.33v-.15l-.07-.85,0-.18q0-.43-.07-.79v-.14c0-.21,0-.4-.06-.57V9.56c0-.18,0-.32-.06-.45V9c0-.12,0-.21,0-.27-1.08-4.48-6.37-5.51-7-5.61l-14.2,0V5.3H107.62V3.1H93.75l-.51,0c-.6.1-5.89,1.14-7,5.61,0,.06,0,.16,0,.27v.08c0,.13,0,.27-.06.45v.09c0,.17,0,.36-.06.56l0,.15q0,.36-.07.78l0,.19-.07.82,0,.2-.09,1.06,0,.32-.09,1.15V15l-.1,1.36,0,.38-.11,1.48v.2l-.11,1.48,0,.38-.12,1.64,0,.58L85,23.77l0,.57-.12,1.79,0,.59-.1,1.44-.07,1-.1,1.43-.05.81-.13,2v.05H59.82l-.33,0c-.77.09-7.59,1-10.29,5.46C46.84,42.91,30,94.53,24,144.19q-1.1,9.07-1.86,17.93A31.94,31.94,0,0,0,5.81,189.93v51.48A32,32,0,0,0,28.51,272,109,109,0,0,0,33.59,286c17,37.82,55.28,82,107.35,82s90.37-44.16,107.35-82c.46-1,.9-2.07,1.33-3.14l.27-.68q.53-1.34,1-2.74l.2-.57q.55-1.53,1.07-3.13l.1-.3q.58-1.79,1.12-3.65a32,32,0,0,0,22.27-30.43V189.93A31.94,31.94,0,0,0,259.82,162.35ZM227.54,42.05c1.7,3.06,18.33,52.63,24.44,102.86.15,1.26.3,2.54.45,3.82.09.76.17,1.52.25,2.28.05.47.1.95.15,1.42q.16,1.51.31,3l.06.56q.17,1.73.33,3.49h0q.3,3.28.55,6.61h0q.09,1.23.18,2.46l.1,1.38q.08,1.23.16,2.47c0,.36,0,.73.07,1.1q.14,2.26.26,4.53,0,.73.07,1.46.06,1.23.11,2.45c0,.47,0,.94.06,1.41q0,1,.08,2l-18.51-19.81c-2.19-48.12-10-109.42-12.07-125.38A5.83,5.83,0,0,1,227.54,42.05Zm5.68,146.28a153.25,153.25,0,0,1-8.61,50.7l-25-24a7.33,7.33,0,0,0-10.52.38l-14.34,15.92a7.37,7.37,0,0,0,.13,10l30.94,32.59c-15.44,19.53-37.2,32.46-64.83,32.46-27.18,0-48.68-12.5-64.07-31.5l31.85-33.55a7.37,7.37,0,0,0,.13-10L94.51,215.42A7.33,7.33,0,0,0,84,215L57.72,240.27a153,153,0,0,1-9.05-51.94c0-5.48.13-11.36.36-17.5H91.88c-.15,1.58-.24,3.18-.24,4.81a49.31,49.31,0,0,0,98.61,0c0-1.62-.08-3.22-.24-4.81h42.85C233.09,177,233.22,182.85,233.22,188.33Zm-55.48,50.2a3.35,3.35,0,0,1-.06-4.52L192,218.09a3.3,3.3,0,0,1,2.36-1.1h.12a3.3,3.3,0,0,1,2.31.93l33.39,32a3.35,3.35,0,0,1,.41,4.33l-12,21.71a3.33,3.33,0,0,1-5.07.29Zm-91-20.61a3.3,3.3,0,0,1,2.31-.93h.12a3.3,3.3,0,0,1,2.35,1.1L105.88,234a3.35,3.35,0,0,1-.06,4.52L70,276.25a3.33,3.33,0,0,1-5.13-.37L51,256.26a3.31,3.31,0,0,1,.41-4.33ZM61.44,39.5H84L83.78,43l0,.3c-.16,2.52-.32,5.08-.48,7.66v0l-.12,1.87V53L83,54.67,83,55c-.32,5.1-.63,10.18-.93,15l0,.31-.21,3.41v.16c-.25,4.1-.48,7.93-.69,11.32v.2L81,87.9l0,.44-.18,3.07L80.65,94l-.09,1.44,1.08,1c.92.83,23,20.27,59.31,20.27s58.39-19.44,59.31-20.27l1.08-1L201.24,94l-.15-2.58c-.69-11.6-2-33.54-3.21-51.93h22.57c1.81,13.69,9.86,76.23,12.16,125.34H189a49.3,49.3,0,0,0-96.2,0H49.28C51.57,115.73,59.62,53.18,61.44,39.5ZM185.57,175.64A44.62,44.62,0,1,1,140.94,131,44.67,44.67,0,0,1,185.57,175.64ZM94.06,9.1h7.56V11.3h78.83V9.1h7.38a3.6,3.6,0,0,1,1.95,1c0,.08,0,.2,0,.33v.07c0,.13,0,.29,0,.46v.12l.06.62v.05l.07.77v.1l.07.91v.18l.08,1v.12l.09,1.13v.15l.09,1.3,0,.24c.11,1.48.22,3.13.35,4.95v.16l.12,1.82v.13c.18,2.65.37,5.57.58,8.69h0c.13,1.93.26,3.93.39,6h0c.4,6.15.82,12.85,1.24,19.68v.19l.2,3.28v.17c.21,3.32.41,6.66.61,10l0,.55.39,6.32,0,.37.17,2.8,0,.65.37,6.16v.09l.19,3.09c-4.71,3.72-24.5,17.84-54.22,17.84S91.45,96.55,86.73,92.84l.34-5.64.09-1.44.33-5.47.05-.9.36-5.93.05-.89.38-6.15,0-.62.18-3,0-.26L89,55.88v-.06c.14-2.24.28-4.45.42-6.63V49c.14-2.16.27-4.29.4-6.36v-.08l.2-3.09c.13-2.08.26-4.09.39-6l.15-2.28v-.13c.3-4.54.57-8.56.8-11.85l0-.23.1-1.46v-.11c.07-1,.14-1.87.2-2.68v-.06l.08-1.07v-.14l.07-.92v-.07l.06-.74v-.08L92,11V11c0-.17,0-.32,0-.44v-.06c0-.12,0-.22,0-.29C92.18,9.88,93.13,9.33,94.06,9.1Zm-39.72,33a5.84,5.84,0,0,1,3-1.9c-2.09,15.89-9.81,76.72-12,124.74L26.72,185.44c.51-14.08,1.66-27.9,3.19-40.53C36,94.68,52.65,45.11,54.34,42.07ZM11.81,241.41V189.93a25.89,25.89,0,0,1,9.68-20.18c-2.64,36.93-.82,70.17,5.13,95.08h0A26,26,0,0,1,11.81,241.41Zm15.72,27h0ZM140.94,362c-49.2,0-85.63-42.25-101.88-78.44-10-22.18-13.14-55.85-12.59-89.12l18.42-20.25c-.16,4.91-.24,9.64-.24,14.11a157.15,157.15,0,0,0,9.92,55l-6,5.76a7.38,7.38,0,0,0-.9,9.53L61.62,278.2a7.31,7.31,0,0,0,5.46,3.07l.53,0A7.3,7.3,0,0,0,72.92,279L74,277.83c13.19,16.2,34.52,32.51,66.91,32.51,33,0,54.55-17,67.67-33.46l2,2.14a7.3,7.3,0,0,0,5.31,2.28l.53,0a7.31,7.31,0,0,0,5.46-3.07l12-21.73a7.38,7.38,0,0,0-1-9.43l-5.2-5a157.34,157.34,0,0,0,9.46-53.72c0-4.33-.08-8.9-.23-13.66l18.4,19.58q.06,3.59.06,7.17,0,.68,0,1.36,0,1.3,0,2.59c0,.25,0,.5,0,.75q0,2.56-.09,5.12c0,.39,0,.79,0,1.18q0,1.32-.08,2.64c0,.34,0,.69,0,1q-.1,2.57-.23,5.11c0,.26,0,.52,0,.77q-.07,1.35-.16,2.69,0,.5-.06,1-.28,4.27-.67,8.45l-.09.92q-.41,4.24-.94,8.36l-.1.75q-.18,1.33-.37,2.65l-.08.55q-.39,2.65-.83,5.24l-.06.34q-.22,1.28-.46,2.54l-.15.76q-.74,3.84-1.62,7.5l-.2.82c-.19.78-.38,1.55-.58,2.31-.57,2.16-1.17,4.27-1.82,6.31-.15.46-.3.9-.45,1.35-.21.62-.41,1.24-.63,1.85-.16.45-.32.89-.48,1.33q-.36,1-.73,1.92c-.14.36-.28.71-.42,1.07-.4,1-.8,1.95-1.23,2.89C226.58,319.77,190.15,362,140.94,362ZM269.69,241.41a26,26,0,0,1-14.37,23.2h0c1.1-4.62,2.05-9.52,2.86-14.67l0-.22q1.2-7.71,2-16.14l0-.24q.25-2.75.46-5.58v-.08q.63-8.65.81-17.91v-.37q.18-9.21-.08-18.94v-.37q-.09-3.14-.22-6.32v-.18q-.28-6.66-.76-13.51h0a25.88,25.88,0,0,1,9.27,19.85ZM254.4,268.29h0Z" transform="translate(-5.31 -2.6)"/>
</svg>