<svg id="Calque_11_-_copie_4" data-name="Calque 11 - copie 4" xmlns="http://www.w3.org/2000/svg" viewBox="0 0 458.43 140"><defs><style>.cls-1{fill:#a9b920;}.cls-2{fill:#fff;}</style></defs><title>insecte-vecto</title><path class="cls-1" d="M20.4,0H386.07a0,0,0,0,1,0,0V139.36a.64.64,0,0,1-.64.64H20.4A20.4,20.4,0,0,1,0,119.6V20.4A20.4,20.4,0,0,1,20.4,0Z"/><circle class="cls-1" cx="388.43" cy="70" r="70"/><path class="cls-2" d="M44.6,101.22V52.83h7v48.4Z" transform="translate(-7.05 -6.02)"/><path class="cls-2" d="M60.09,101.22V59.54q0-7.2,5.78-7.2a10,10,0,0,1,2.2.28q2.75.64,4.34,4.65L87.12,93V52.83h7V95.42a6.56,6.56,0,0,1-1.52,4.32,5.84,5.84,0,0,1-4,2.11q-4.63.55-6.91-4.84L67.07,62.09v39.14Z" transform="translate(-7.05 -6.02)"/><path class="cls-2" d="M101.22,101.22v-7h20A4.49,4.49,0,0,0,124,93a3.58,3.58,0,0,0,1.21-2.67V84.1q0-3.4-4.37-4a2.82,2.82,0,0,0-.76-.07H112.8a12.88,12.88,0,0,1-8-2.56,8.71,8.71,0,0,1-3.61-7.26V64.1q0-7.6,5.95-10.37a14,14,0,0,1,5.67-.9h19.63v7H112.15a1.13,1.13,0,0,1-.35.07q-3.6.55-3.6,3.94v4.77q0,5,4.56,5h8.5a11.73,11.73,0,0,1,5.95,1.59q5,2.84,5,7.74v7.61a9.94,9.94,0,0,1-4.48,8.64,11,11,0,0,1-6.41,2Z" transform="translate(-7.05 -6.02)"/><path class="cls-2" d="M139.53,88.22V64.93q0-6.64,3.87-9.54,3.39-2.56,10.23-2.56h17.7v7h-20.4a3.81,3.81,0,0,0-3.18,1.66,6,6,0,0,0-1.24,3.66v8.23h24.75v7H146.51v9.52a3.08,3.08,0,0,0,.35,1.39A4.74,4.74,0,0,0,150,94a20.52,20.52,0,0,0,4.29.28h16.87v7H152.39Q139.53,101.22,139.53,88.22Z" transform="translate(-7.05 -6.02)"/><path class="cls-2" d="M178.86,89.61V64.72a12.22,12.22,0,0,1,3-8.54,10.47,10.47,0,0,1,8.16-3.35h20.33v7H191q-5.12,0-5.12,5.12V89.05a5.05,5.05,0,0,0,1.49,3.66A4.88,4.88,0,0,0,191,94.24h19.29v7H189.51a11,11,0,0,1-6.08-2.07Q178.86,96.11,178.86,89.61Z" transform="translate(-7.05 -6.02)"/><path class="cls-2" d="M213.64,59.81v-7H241.5v7H231.06v41.41h-7V59.81Z" transform="translate(-7.05 -6.02)"/><path class="cls-2" d="M246.2,88.22V64.93q0-6.64,3.87-9.54,3.39-2.56,10.23-2.56H278v7h-20.4a3.81,3.81,0,0,0-3.18,1.66,6,6,0,0,0-1.24,3.66v8.23h24.75v7H253.19v9.52a3.08,3.08,0,0,0,.35,1.39A4.74,4.74,0,0,0,256.64,94a20.52,20.52,0,0,0,4.29.28H277.8v7H259.06Q246.2,101.22,246.2,88.22Z" transform="translate(-7.05 -6.02)"/><path class="cls-2" d="M390.17,72.46l-14.38-5.28c-5.75,3.66-9.37,9.53-9.37,17.84a28,28,0,0,0,23.75,27.68Z" transform="translate(-7.05 -6.02)"/><path class="cls-2" d="M413.35,67.37l-16.18,5.2v40.31A28,28,0,0,0,422.42,85C422.42,76.86,418.93,71,413.35,67.37Z" transform="translate(-7.05 -6.02)"/><polygon class="cls-2" points="386.54 55.48 369.5 44.92 369.5 34.5 375.5 34.5 375.5 41.58 386.71 48.53 397.19 42.73 397.19 34.5 403.19 34.5 403.19 46.27 386.54 55.48"/><path class="cls-2" d="M393.75,66.32l13-4.18A12.8,12.8,0,0,0,382.1,62Z" transform="translate(-7.05 -6.02)"/></svg>