<svg id="Calque_11_-_copie_4" data-name="Calque 11 - copie 4" xmlns="http://www.w3.org/2000/svg" viewBox="0 0 458.43 140"><defs><style>.cls-1{fill:#a9b920;}.cls-2{fill:#fff;}</style></defs><title>insecte-vecto</title><path class="cls-1" d="M20.4,0H386.07a0,0,0,0,1,0,0V139.36a.64.64,0,0,1-.64.64H20.4A20.4,20.4,0,0,1,0,119.6V20.4A20.4,20.4,0,0,1,20.4,0Z"/><circle class="cls-1" cx="388.43" cy="70" r="70"/><path class="cls-2" d="M65.81,97.11H42.34V88h5.87V60.6H42.34V51.47H65.81V60.6H59.94V88h5.87Z" transform="translate(-7.05 -6.02)"/><path class="cls-2" d="M111.45,97.11H99.06L83.41,69.73V97.11H71.68V51.47H84.06L99.71,78.86V51.47h11.74Z" transform="translate(-7.05 -6.02)"/><path class="cls-2" d="M129.05,65.82q0,3.91,3.91,3.91H144.7q6.39,0,9.39,3t3,9.24v3.21q0,6.29-3,9.24t-9.39,3H127.36a53.06,53.06,0,0,1-9.45-.85V88.11h24.19a3.33,3.33,0,0,0,2.38-.83,2.94,2.94,0,0,0,.88-2.24V79.51h-15q-6.85,0-9.94-3.1t-3.1-9.94v-2q0-6.85,3.1-9.94t9.94-3.1h22.88V60.6H133q-3.91,0-3.91,3.91Z" transform="translate(-7.05 -6.02)"/><path class="cls-2" d="M199.14,97.11H163V51.47h36.18V60.6H174.69v8.8h19.23v9.13H174.69V88h24.45Z" transform="translate(-7.05 -6.02)"/><path class="cls-2" d="M215.44,97.31q-6.39,0-9.39-3T203,85V64.38q0-6.78,3.1-9.84t9.94-3.07h23.47V60.6H218.7q-3.91,0-3.91,3.89V85.26A3,3,0,0,0,218,88.5h9.81a11.15,11.15,0,0,0,3.49-.55h8.21v8.52a46.14,46.14,0,0,1-8.67.83H215.44Z" transform="translate(-7.05 -6.02)"/><path class="cls-2" d="M266.94,97.11H255.21V60.6H241.51V51.47h39.12V60.6H266.94Z" transform="translate(-7.05 -6.02)"/><path class="cls-2" d="M321.38,97.11H285.2V51.47h36.18V60.6H296.93v8.8h19.23v9.13H296.93V88h24.45Z" transform="translate(-7.05 -6.02)"/><path class="cls-2" d="M390.17,72.46l-14.38-5.28c-5.75,3.66-9.37,9.53-9.37,17.84a28,28,0,0,0,23.75,27.68Z" transform="translate(-7.05 -6.02)"/><path class="cls-2" d="M413.35,67.37l-16.18,5.2v40.31A28,28,0,0,0,422.42,85C422.42,76.86,418.93,71,413.35,67.37Z" transform="translate(-7.05 -6.02)"/><polygon class="cls-2" points="386.54 55.48 369.5 44.92 369.5 34.5 375.5 34.5 375.5 41.58 386.71 48.53 397.19 42.73 397.19 34.5 403.19 34.5 403.19 46.27 386.54 55.48"/><path class="cls-2" d="M393.75,66.32l13-4.18A12.8,12.8,0,0,0,382.1,62Z" transform="translate(-7.05 -6.02)"/></svg>