<svg id="Calque_11_-_copie_10" data-name="Calque 11 - copie 10" xmlns="http://www.w3.org/2000/svg" viewBox="0 0 458.43 140"><defs><style>.cls-1{fill:#715949;}.cls-2{fill:#fff;}</style></defs><title>tenebres</title><path class="cls-1" d="M20.4,0H386.07a0,0,0,0,1,0,0V139.36a.64.64,0,0,1-.64.64H20.4A20.4,20.4,0,0,1,0,119.6V20.4A20.4,20.4,0,0,1,20.4,0Z"/><circle class="cls-1" cx="388.43" cy="70" r="70"/><path class="cls-2" d="M64.47,97.11H54.14V60.6h-12V51.47H76.52V60.6h-12Z" transform="translate(-7.05 -6.02)"/><path class="cls-2" d="M110.94,97.11H79.1V51.47h31.84V60.6H89.43v8.8h16.93v9.13H89.43V88h21.52Z" transform="translate(-7.05 -6.02)"/><path class="cls-2" d="M149.09,97.11h-10.9L124.42,69.73V97.11H114.1V51.47H125l13.77,27.38V51.47h10.33Z" transform="translate(-7.05 -6.02)"/><path class="cls-2" d="M186.39,97.11H154.54V51.47h31.84V60.6H164.87v8.8H181.8v9.13H164.87V88h21.52Z" transform="translate(-7.05 -6.02)"/><path class="cls-2" d="M189.54,51.47h22.95q5.62,0,8.26,2.9t2.64,8.83a12.07,12.07,0,0,1-1.49,6.36A8.34,8.34,0,0,1,218.23,73a9.75,9.75,0,0,1,2.52,1.24A8,8,0,0,1,223,76.51,12.9,12.9,0,0,1,224.51,80a16.82,16.82,0,0,1,.6,4.73q0,6.39-2.64,9.39t-8.26,3H189.54Zm23.52,13q0-3.91-3.44-3.91h-9.75v9.13h9.75q3.44,0,3.44-3.91Zm1.72,18.26q0-3.91-3.44-3.91H199.87V88h11.47q3.44,0,3.44-3.91Z" transform="translate(-7.05 -6.02)"/><path class="cls-2" d="M228.84,51.47h24.1q6,0,8.75,3.1t2.73,9.94v5.87a18.33,18.33,0,0,1-1.58,8.41,7.82,7.82,0,0,1-5,4L265,97.11H253.8l-6.6-13.69h-8V97.11H228.84Zm25.24,13q0-3.91-3.44-3.91H239.17V74.29h11.47q3.44,0,3.44-3.91Z" transform="translate(-7.05 -6.02)"/><path class="cls-2" d="M300.56,97.11H268.71V51.47h31.84V60.6H279v8.8H296v9.13H279V88h21.52Z" transform="translate(-7.05 -6.02)"/><path class="cls-2" d="M312.32,65.82q0,3.91,3.44,3.91h10.33q5.62,0,8.26,3T337,81.91v3.21q0,6.29-2.64,9.24t-8.26,3H310.83a41.25,41.25,0,0,1-8.32-.85V88.11h21.29a2.73,2.73,0,0,0,2.09-.83,3.16,3.16,0,0,0,.77-2.24V79.51h-13.2q-6,0-8.75-3.1T302,66.47v-2q0-6.85,2.73-9.94t8.75-3.1H333.6V60.6H315.76q-3.44,0-3.44,3.91Z" transform="translate(-7.05 -6.02)"/><path class="cls-2" d="M410.88,34.82a29.57,29.57,0,1,1-30.93,0,44,44,0,1,0,30.93,0Z" transform="translate(-7.05 -6.02)"/></svg>