<svg id="Calque_11_-_copie_10" data-name="Calque 11 - copie 10" xmlns="http://www.w3.org/2000/svg" viewBox="0 0 506.46 140"><defs><style>.cls-1{fill:#715949;}.cls-2{fill:#fff;}</style></defs><title>tenebres</title><path class="cls-1" d="M20.4,0H434.1a0,0,0,0,1,0,0V139.36a.64.64,0,0,1-.64.64H20.4A20.4,20.4,0,0,1,0,119.6V20.4A20.4,20.4,0,0,1,20.4,0Z"/><circle class="cls-1" cx="436.46" cy="70" r="70"/><path class="cls-2" d="M60.89,97.11H49.15V60.6H35.46V51.47H74.58V60.6H60.89Z" transform="translate(-5.97 -6.02)"/><path class="cls-2" d="M115.33,97.11H79.14V51.47h36.18V60.6H90.88v8.8h19.23v9.13H90.88V88h24.45Z" transform="translate(-5.97 -6.02)"/><path class="cls-2" d="M160.31,97.11H147.93L132.28,69.73V97.11H120.54V51.47h12.39l15.65,27.38V51.47h11.74Z" transform="translate(-5.97 -6.02)"/><path class="cls-2" d="M204.32,97.11H168.14V51.47h36.18V60.6H179.87v8.8H199.1v9.13H179.87V88h24.45Z" transform="translate(-5.97 -6.02)"/><path class="cls-2" d="M209.54,51.47h26.08q6.39,0,9.39,2.9t3,8.83a10.93,10.93,0,0,1-1.7,6.36A9.13,9.13,0,0,1,242.13,73,11.77,11.77,0,0,1,245,74.23a8.63,8.63,0,0,1,2.51,2.28A12.22,12.22,0,0,1,249.27,80a15,15,0,0,1,.68,4.73q0,6.39-3,9.39t-9.39,3h-28Zm26.73,13q0-3.91-3.91-3.91H221.27v9.13h11.08q3.91,0,3.91-3.91Zm2,18.26q0-3.91-3.91-3.91h-13V88h13q3.91,0,3.91-3.91Z" transform="translate(-5.97 -6.02)"/><path class="cls-2" d="M255.83,51.47h27.38q6.85,0,9.94,3.1t3.1,9.94v5.87q0,5.41-1.79,8.41a8.77,8.77,0,0,1-5.7,4l8.15,14.34H284.19l-7.5-13.69h-9.13V97.11H255.83Zm28.69,13q0-3.91-3.91-3.91h-13V74.29h13q3.91,0,3.91-3.91Z" transform="translate(-5.97 -6.02)"/><path class="cls-2" d="M339,97.11H302.77V51.47H339V60.6H314.5v8.8h19.23v9.13H314.5V88H339Z" transform="translate(-5.97 -6.02)"/><path class="cls-2" d="M353.95,65.82q0,3.91,3.91,3.91h11.74q6.39,0,9.39,3t3,9.24v3.21q0,6.29-3,9.24t-9.39,3H352.25a53.05,53.05,0,0,1-9.45-.85V88.11H367a3.33,3.33,0,0,0,2.38-.83,2.94,2.94,0,0,0,.88-2.24V79.51h-15q-6.85,0-9.94-3.1t-3.1-9.94v-2q0-6.85,3.1-9.94t9.94-3.1h22.88V60.6H357.86q-3.91,0-3.91,3.91Z" transform="translate(-5.97 -6.02)"/><path class="cls-2" d="M457.83,34.82a29.57,29.57,0,1,1-30.93,0,44,44,0,1,0,30.93,0Z" transform="translate(-5.97 -6.02)"/></svg>