<svg id="Calque_10" data-name="Calque 10" xmlns="http://www.w3.org/2000/svg" viewBox="0 0 458.43 140"><defs><style>.cls-1{fill:#534b9a;}.cls-2{isolation:isolate;}.cls-3{fill:#fff;}</style></defs><title>dragon-vecto</title><path class="cls-1" d="M20.4,0H386.07V139.36a.64.64,0,0,1-.64.64H20.4A20.4,20.4,0,0,1,0,119.6H0V20.4A20.4,20.4,0,0,1,20.4,0Z" transform="translate(0 0)"/><circle class="cls-1" cx="388.43" cy="70" r="70"/><g class="cls-2"><path class="cls-3" d="M37.55,95.2V46.8H62.23A9.27,9.27,0,0,1,69.63,50a11.81,11.81,0,0,1,2.77,8V82.89q0,8-6.64,11.13a11.28,11.28,0,0,1-4.84,1.18Zm23-7q4.84,0,4.84-5.88V58.76a2.88,2.88,0,0,1-.07-.48A5.48,5.48,0,0,0,64,54.75a5.4,5.4,0,0,0-3.63-1H44.53V88.22Z" transform="translate(0 0)"/><path class="cls-3" d="M80.83,95.2V46.8H105.3a10.16,10.16,0,0,1,6.15,1.87,9.73,9.73,0,0,1,4.08,8.23v8.3a9.22,9.22,0,0,1-2.78,6.6,8.71,8.71,0,0,1-6.45,2.87H98L115.85,95.2h-9.24L88.78,74.6A3.78,3.78,0,0,1,88.37,71q1-3.35,5.06-3.35h11.24q3.88-.63,3.88-3.91V58.32q0-3.84-3.61-4.47a1.09,1.09,0,0,1-.35-.07H87.81V95.2Z" transform="translate(0 0)"/><path class="cls-3" d="M117.82,95.2l16.11-43.9q1.87-5,5.39-5,4,0,5.88,5l16,43.84h-7.43L150,85.11H129L125.26,95.2Zm29.63-17.08-8.08-22-7.85,22Z" transform="translate(0 0)"/><path class="cls-3" d="M164.83,82.69V59.52q0-12.72,12.93-12.72h18.53v7H176.66l-.35.07a5.48,5.48,0,0,0-3.53,1.49,5.69,5.69,0,0,0-1,3.7V83.1a8.9,8.9,0,0,0,.14,1,4.45,4.45,0,0,0,3.73,4.08H187.3q4.49,0,5.12-4.22a2.81,2.81,0,0,0,.07-.76V67.61h7V82.48a14.48,14.48,0,0,1-1.11,6.22,11,11,0,0,1-4.32,5,13.73,13.73,0,0,1-6.74,1.45h-9.68A13.78,13.78,0,0,1,171.47,94a11.81,11.81,0,0,1-5.15-4.49A13.81,13.81,0,0,1,164.83,82.69Z" transform="translate(0 0)"/><path class="cls-3" d="M207.91,81.65V60.35q0-7.33,3.73-10.58,3.53-3,11-3H228q7.47,0,11,3,3.73,3.25,3.73,10.58V81.65q0,7.33-3.73,10.58-3.53,3-11,3h-5.32q-9.61,0-13.14-6.78A14.4,14.4,0,0,1,207.91,81.65Zm13.71,6.57h7.49q3.61,0,5.1-1.31t1.49-4.84v-22q0-3.59-1.46-4.94t-5.13-1.35h-7.49q-3.68,0-5.2,1.35t-1.53,4.94V81.93q0,3.59,1.53,4.94T221.62,88.22Z" transform="translate(0 0)"/><path class="cls-3" d="M251.12,95.2V53.52q0-7.2,5.78-7.2a10,10,0,0,1,2.2.28q2.75.63,4.33,4.65L278.15,87V46.8h7V89.39a6.56,6.56,0,0,1-1.52,4.32,5.84,5.84,0,0,1-4,2.11q-4.63.55-6.91-4.84L258.1,56.06V95.2Z" transform="translate(0 0)"/></g><path class="cls-3" d="M422.83,61.17h-7.88a6,6,0,0,1-6-6V47.4a4.9,4.9,0,0,0-4.9-4.9h-2.1s-.5-6-7-11S383.58,26,383.58,26a37.76,37.76,0,0,1,8.58,8.25,24,24,0,0,1,3.42,8l-4.58.25s-4.51-6.22-7.33-8.08c-6.62-4.38-15.17-3.92-15.17-3.92s7,2.89,10.5,6.5c3.75,3.92,3.92,6.83,3.92,6.83A42.09,42.09,0,0,0,350.5,60c-13.5,17-4.06,38.91,11.75,45.25,26.18,10.5,51.75-3.75,51.75-3.75s-35.5,6-48-6.5c-11.88-11.88-5-26,2-30.5A29.94,29.94,0,0,1,381.83,60v11.7a4.9,4.9,0,0,0,4.9,4.9l9.63-1c2.61-.28,4-.28,7.7,1h1.29l2.15,6.17,1.06-6.27,9.61-.32,1.45,6,1-6h1a2.87,2.87,0,0,0,2.74-2.87l1.59-9A3.17,3.17,0,0,0,422.83,61.17Zm-31-1.42c-2.21,0-4-2.43-4-5.42s1.79-5.42,4-5.42,4,2.43,4,5.42S394,59.75,391.83,59.75Z" transform="translate(0 0)"/></svg>