<svg id="Calque_10" data-name="Calque 10" xmlns="http://www.w3.org/2000/svg" viewBox="0 0 458.43 140"><defs><style>.cls-1{fill:#534b9a;}.cls-2{isolation:isolate;}.cls-3{fill:#fff;}</style></defs><title>dragon-vecto</title><path class="cls-1" d="M20.4,0H386.07V139.36a.64.64,0,0,1-.64.64H20.4A20.4,20.4,0,0,1,0,119.6H0V20.4A20.4,20.4,0,0,1,20.4,0Z" transform="translate(0 0)"/><circle class="cls-1" cx="388.43" cy="70" r="70"/><g class="cls-2"><path class="cls-3" d="M62.67,45Q70,45,73.85,48.79T77.66,60V75.62q0,7.37-3.81,11.18T62.67,90.61H37.24V45Zm3.26,15q0-5.87-5.87-5.87H49V81.49H60.06q5.87,0,5.87-5.87Z" transform="translate(0 0)"/><path class="cls-3" d="M84.18,45h27.38q6.85,0,9.94,3.1T124.6,58v5.87q0,5.41-1.79,8.41a8.77,8.77,0,0,1-5.7,4l8.15,14.34H112.54L105,76.92H95.92V90.61H84.18Zm28.69,13q0-3.91-3.91-3.91h-13V67.8h13q3.91,0,3.91-3.91Z" transform="translate(0 0)"/><path class="cls-3" d="M139.27,90.61H126.56L143.84,45h13l17.28,45.64H161.44l-2.93-8.15h-16.3ZM145.14,74h10.43l-5.22-15.32Z" transform="translate(0 0)"/><path class="cls-3" d="M187.19,91.07q-6.39,0-9.39-3t-3-9.35V58q0-6.82,3.1-9.9T187.85,45h23.47V54.1H190.45q-3.91,0-3.91,3.89V78.76A3,3,0,0,0,189.8,82h13.69V72.36H195V64.54h20.21V89.67a71,71,0,0,1-9.84.68,54.82,54.82,0,0,1-9.13.72Z" transform="translate(0 0)"/><path class="cls-3" d="M262.82,78.23q0,6.85-3.1,9.94t-9.94,3.1h-16.3q-6.85,0-9.94-3.1t-3.1-9.94V57.36q0-6.85,3.1-9.94t9.94-3.1h16.3q6.85,0,9.94,3.1t3.1,9.94ZM251.09,57.36q0-3.91-3.91-3.91H236.09q-3.91,0-3.91,3.91V78.23q0,3.91,3.91,3.91h11.08q3.91,0,3.91-3.91Z" transform="translate(0 0)"/><path class="cls-3" d="M309.11,90.61H296.72L281.08,63.23V90.61H269.34V45h12.39l15.65,27.38V45h11.74Z" transform="translate(0 0)"/></g><path class="cls-3" d="M422.83,61.17h-7.88a6,6,0,0,1-6-6V47.4a4.9,4.9,0,0,0-4.9-4.9h-2.1s-.5-6-7-11S383.58,26,383.58,26a37.76,37.76,0,0,1,8.58,8.25,24,24,0,0,1,3.42,8l-4.58.25s-4.51-6.22-7.33-8.08c-6.62-4.38-15.17-3.92-15.17-3.92s7,2.89,10.5,6.5c3.75,3.92,3.92,6.83,3.92,6.83A42.09,42.09,0,0,0,350.5,60c-13.5,17-4.06,38.91,11.75,45.25,26.18,10.5,51.75-3.75,51.75-3.75s-35.5,6-48-6.5c-11.88-11.88-5-26,2-30.5A29.94,29.94,0,0,1,381.83,60v11.7a4.9,4.9,0,0,0,4.9,4.9l9.63-1c2.61-.28,4-.28,7.7,1h1.29l2.15,6.17,1.06-6.27,9.61-.32,1.45,6,1-6h1a2.87,2.87,0,0,0,2.74-2.87l1.59-9A3.17,3.17,0,0,0,422.83,61.17Zm-31-1.42c-2.21,0-4-2.43-4-5.42s1.79-5.42,4-5.42,4,2.43,4,5.42S394,59.75,391.83,59.75Z" transform="translate(0 0)"/></svg>