<svg id="Calque_14" data-name="Calque 14" xmlns="http://www.w3.org/2000/svg" viewBox="0 0 458.43 140"><defs><style>.cls-1{fill:#f9d132;}.cls-2{fill:#fff;}</style></defs><title>electricite-vecto</title><path class="cls-1" d="M20.4,0H386.07a0,0,0,0,1,0,0V139.36a.64.64,0,0,1-.64.64H20.4A20.4,20.4,0,0,1,0,119.6V20.4A20.4,20.4,0,0,1,20.4,0Z"/><circle class="cls-1" cx="388.43" cy="70" r="70"/><path class="cls-2" d="M77.48,98.11H41.29V52.47H77.48V61.6H53v8.8H72.26v9.13H53V89H77.48Z" transform="translate(-7.05 -6.02)"/><path class="cls-2" d="M94.43,89h23.8v9.13H82.69V52.47H94.43Z" transform="translate(-7.05 -6.02)"/><path class="cls-2" d="M159,98.11H122.79V52.47H159V61.6H134.52v8.8h19.23v9.13H134.52V89H159Z" transform="translate(-7.05 -6.02)"/><path class="cls-2" d="M175.27,98.31q-6.39,0-9.39-3t-3-9.3V65.38q0-6.78,3.1-9.84t9.94-3.07h23.47V61.6H178.53q-3.91,0-3.91,3.89V86.26a3,3,0,0,0,3.26,3.24h9.81a11.15,11.15,0,0,0,3.49-.55h8.21v8.52a46.14,46.14,0,0,1-8.67.83H175.27Z" transform="translate(-7.05 -6.02)"/><path class="cls-2" d="M226.78,98.11H215V61.6H201.35V52.47h39.12V61.6H226.78Z" transform="translate(-7.05 -6.02)"/><path class="cls-2" d="M245,52.47h27.38q6.85,0,9.94,3.1t3.1,9.94v5.87q0,5.41-1.79,8.41a8.77,8.77,0,0,1-5.7,4l8.15,14.34H273.39l-7.5-13.69h-9.13V98.11H245Zm28.69,13q0-3.91-3.91-3.91h-13V75.29h13q3.91,0,3.91-3.91Z" transform="translate(-7.05 -6.02)"/><path class="cls-2" d="M313.49,98.11H290V89h5.87V61.6H290V52.47h23.47V61.6h-5.87V89h5.87Z" transform="translate(-7.05 -6.02)"/><path class="cls-2" d="M331.09,98.11H319.35V52.47h11.74V70.4H337l10.17-17.93h12.39L346.74,75l12.71,23.15H347.06L337,79.53h-5.87Z" transform="translate(-7.05 -6.02)"/><polygon class="cls-2" points="416.5 17.5 377.5 75.5 401 75.5 387.5 122 429 64.76 403.25 64.76 416.5 17.5"/></svg>