<svg id="Calque_14" data-name="Calque 14" xmlns="http://www.w3.org/2000/svg" viewBox="0 0 458.43 140"><defs><style>.cls-1{fill:#f9d132;}.cls-2{fill:#fff;}</style></defs><title>electricite-vecto</title><path class="cls-1" d="M20.4,0H386.07a0,0,0,0,1,0,0V139.36a.64.64,0,0,1-.64.64H20.4A20.4,20.4,0,0,1,0,119.6V20.4A20.4,20.4,0,0,1,20.4,0Z"/><circle class="cls-1" cx="388.43" cy="70" r="70"/><path class="cls-2" d="M44.6,88.22V64.93q0-6.64,3.87-9.54,3.39-2.56,10.23-2.56H76.4v7H56a3.81,3.81,0,0,0-3.18,1.66,6,6,0,0,0-1.24,3.66v8.23H76.33v7H51.58v9.52a3.08,3.08,0,0,0,.35,1.39A4.74,4.74,0,0,0,55,94a20.52,20.52,0,0,0,4.29.28H76.2v7H57.46Q44.6,101.22,44.6,88.22Z" transform="translate(-7.05 -6.02)"/><path class="cls-2" d="M83.94,89.05V52.83h7V89q0,2.9,1.35,4.08a6.5,6.5,0,0,0,4.32,1.18h18.32v7H96.73q-6.08,0-9.33-3Q83.94,95.07,83.94,89.05Z" transform="translate(-7.05 -6.02)"/><path class="cls-2" d="M119.54,88.22V64.93q0-6.64,3.87-9.54,3.39-2.56,10.23-2.56h17.7v7H131a3.81,3.81,0,0,0-3.18,1.66,6,6,0,0,0-1.24,3.66v8.23h24.75v7H126.53v9.52a3.08,3.08,0,0,0,.35,1.39A4.74,4.74,0,0,0,130,94a20.52,20.52,0,0,0,4.29.28h16.87v7H132.4Q119.54,101.22,119.54,88.22Z" transform="translate(-7.05 -6.02)"/><path class="cls-2" d="M158.88,89.61V64.72a12.22,12.22,0,0,1,3-8.54,10.47,10.47,0,0,1,8.16-3.35h20.33v7H171q-5.12,0-5.12,5.12V89.05a5.05,5.05,0,0,0,1.49,3.66A4.88,4.88,0,0,0,171,94.24h19.29v7H169.53a11,11,0,0,1-6.08-2.07Q158.88,96.11,158.88,89.61Z" transform="translate(-7.05 -6.02)"/><path class="cls-2" d="M193.66,59.81v-7h27.86v7H211.08v41.41h-7V59.81Z" transform="translate(-7.05 -6.02)"/><path class="cls-2" d="M226.22,101.22V52.83H250.7a10.16,10.16,0,0,1,6.15,1.87,9.73,9.73,0,0,1,4.08,8.23v8.3a9.23,9.23,0,0,1-2.77,6.6,8.71,8.71,0,0,1-6.45,2.87h-8.33l17.87,20.53H252l-17.84-20.6a3.79,3.79,0,0,1-.42-3.56q1-3.35,5.06-3.35h11.24q3.88-.63,3.88-3.91V64.35q0-3.84-3.61-4.47a1.09,1.09,0,0,1-.35-.07H233.2v41.41Z" transform="translate(-7.05 -6.02)"/><path class="cls-2" d="M268,101.22V52.83h7v48.4Z" transform="translate(-7.05 -6.02)"/><path class="cls-2" d="M283.54,52.83h7v48.4h-7ZM292.39,73a5.17,5.17,0,0,0-1.38,3q0,2,2.9,5.6l15.83,19.57,9.2.07-20.34-25,19.27-23.49h-9L294.25,70.66Z" transform="translate(-7.05 -6.02)"/><polygon class="cls-2" points="399.32 17.5 360.32 75.5 383.82 75.5 370.32 122 411.82 64.76 386.07 64.76 399.32 17.5"/></svg>