<svg id="Calque_11_-_copie" data-name="Calque 11 - copie" xmlns="http://www.w3.org/2000/svg" viewBox="0 0 458.43 140"><defs><style>.cls-1{fill:#ef9aad;}.cls-2{fill:#fff;}</style></defs><title>fee-vecto</title><path class="cls-1" d="M20.4,0H386.07a0,0,0,0,1,0,0V139.36a.64.64,0,0,1-.64.64H20.4A20.4,20.4,0,0,1,0,119.6V20.4A20.4,20.4,0,0,1,20.4,0Z"/><circle class="cls-1" cx="388.43" cy="70" r="70"/><path class="cls-2" d="M44.6,101.22V65.62q0-7,3.46-10,3.25-2.76,10.44-2.77H76.61v7H55.73q-.42.07-1.24.28-2.9,1.11-2.9,4.73v8.89H76.47v7H51.58v20.53Z" transform="translate(-7.05 -6.02)"/><path class="cls-2" d="M82.14,88.22V64.93q0-6.64,3.87-9.54,3.39-2.56,10.23-2.56h17.7v7H93.55a3.81,3.81,0,0,0-3.18,1.66,6,6,0,0,0-1.24,3.66v8.23h24.75v7H89.12v9.52a3.08,3.08,0,0,0,.35,1.39A4.74,4.74,0,0,0,92.58,94a20.52,20.52,0,0,0,4.29.28h16.87v7H95Q82.14,101.22,82.14,88.22Z" transform="translate(-7.05 -6.02)"/><path class="cls-2" d="M121.48,88.22V64.93q0-6.64,3.87-9.54,3.39-2.56,10.23-2.56h17.7v7h-20.4a3.81,3.81,0,0,0-3.18,1.66,6,6,0,0,0-1.24,3.66v8.23h24.75v7H128.46v9.52a3.08,3.08,0,0,0,.35,1.39A4.74,4.74,0,0,0,131.92,94a20.52,20.52,0,0,0,4.29.28h16.87v7H134.34Q121.48,101.22,121.48,88.22Z" transform="translate(-7.05 -6.02)"/><path class="cls-2" d="M416.76,87.38l23-12.6-23-12.6,3.36-11.47-11.47,3.36L396,31l-12.6,23L372,50.7l3.36,11.47-23,12.6,23,12.6L372,98.85l11.47-3.36,12.6,23,12.6-23,11.47,3.36Zm-27.36-6-12.15-6.64,12.15-6.64L396,56l6.64,12.15,12.15,6.64-12.15,6.64L396,93.57Z" transform="translate(-7.05 -6.02)"/></svg>