<svg id="Calque_11_-_copie" data-name="Calque 11 - copie" xmlns="http://www.w3.org/2000/svg" viewBox="0 0 458.43 140"><defs><style>.cls-1{fill:#ef9aad;}.cls-2{fill:#fff;}</style></defs><title>fee-vecto</title><path class="cls-1" d="M20.4,0H386.07a0,0,0,0,1,0,0V139.36a.64.64,0,0,1-.64.64H20.4A20.4,20.4,0,0,1,0,119.6V20.4A20.4,20.4,0,0,1,20.4,0Z"/><circle class="cls-1" cx="388.43" cy="70" r="70"/><path class="cls-2" d="M56,97.11H44.29V51.47H80.48V60.6H56V71.36H75.26v9.13H56Z" transform="translate(-7.05 -6.02)"/><path class="cls-2" d="M121.23,97.11H85V51.47h36.18V60.6H96.78v8.8H116v9.13H96.78V88h24.45Z" transform="translate(-7.05 -6.02)"/><path class="cls-2" d="M162.63,97.11H126.44V51.47h36.18V60.6H138.18v8.8h19.23v9.13H138.18V88h24.45Z" transform="translate(-7.05 -6.02)"/><path class="cls-2" d="M416.76,87.38l23-12.6-23-12.6,3.36-11.47-11.47,3.36L396,31l-12.6,23L372,50.7l3.36,11.47-23,12.6,23,12.6L372,98.85l11.47-3.36,12.6,23,12.6-23,11.47,3.36Zm-27.36-6-12.15-6.64,12.15-6.64L396,56l6.64,12.15,12.15,6.64-12.15,6.64L396,93.57Z" transform="translate(-7.05 -6.02)"/></svg>