<svg id="Calque_8" data-name="Calque 8" xmlns="http://www.w3.org/2000/svg" viewBox="0 0 458.43 140"><defs><style>.cls-1{fill:#c13028;}.cls-2,.cls-3,.cls-4,.cls-5,.cls-6,.cls-8{fill:#fff;}.cls-3,.cls-4,.cls-5,.cls-6,.cls-7,.cls-8{stroke:#c13028;stroke-miterlimit:10;}.cls-3{stroke-width:3.3px;}.cls-4{stroke-width:3.48px;}.cls-5{stroke-width:3.59px;}.cls-6,.cls-7{stroke-width:3.31px;}.cls-7{fill:none;}.cls-8{stroke-width:3.31px;}</style></defs><title>combat-vecto</title><path class="cls-1" d="M20.4,0H386.07a0,0,0,0,1,0,0V139.36a.64.64,0,0,1-.64.64H20.4A20.4,20.4,0,0,1,0,119.6V20.4A20.4,20.4,0,0,1,20.4,0Z"/><circle class="cls-1" cx="388.43" cy="70" r="70"/><path class="cls-2" d="M44.6,89.61V64.72a12.22,12.22,0,0,1,3-8.54,10.47,10.47,0,0,1,8.16-3.35H76.13v7H56.7q-5.12,0-5.12,5.12V89.05a5.05,5.05,0,0,0,1.49,3.66,4.88,4.88,0,0,0,3.63,1.52H76v7H55.25a11,11,0,0,1-6.08-2.07Q44.6,96.11,44.6,89.61Z" transform="translate(-7.05 -6.02)"/><path class="cls-2" d="M83.18,87.67V66.38q0-7.33,3.73-10.58,3.53-3,11-3h5.32q7.47,0,11,3Q118,59.05,118,66.38V87.67q0,7.33-3.73,10.58-3.53,3-11,3H97.91q-9.61,0-13.14-6.78A14.39,14.39,0,0,1,83.18,87.67Zm13.71,6.57h7.49q3.61,0,5.1-1.31T111,88.09v-22q0-3.59-1.46-4.94t-5.13-1.35H96.89q-3.68,0-5.2,1.35T90.16,66.1V87.95q0,3.6,1.53,4.94T96.89,94.24Z" transform="translate(-7.05 -6.02)"/><path class="cls-2" d="M126.39,101.22V59.88q0-5.46,3.31-7a9.65,9.65,0,0,1,4.07-1q4.69,0,6.41,6.1L150.4,93.39l10.67-35.46q1.8-6.08,6.44-6.08a9.73,9.73,0,0,1,4.09,1q3.25,1.52,3.25,7v41.34h-7V59.81L157.09,95.9a10.85,10.85,0,0,1-2.14,4.29,6.37,6.37,0,0,1-8.57,0,10.84,10.84,0,0,1-2.14-4.29L133.37,59.81v41.41Z" transform="translate(-7.05 -6.02)"/><path class="cls-2" d="M183.29,101.22V52.83h24.54q6.91,0,9.61,6.78a9.27,9.27,0,0,1,.69,3.46v5.81q0,5.46-4.15,8,3.18,1.52,4,5.88a6.06,6.06,0,0,1,.14,1.52v4.49q0,12.51-11.13,12.51-.9.07-5.95.07Q195.11,101.29,183.29,101.22Zm23-27.52a4.73,4.73,0,0,0,3.46-1.29A4.59,4.59,0,0,0,211,69V64.33q0-3.54-4.08-4.38a2.58,2.58,0,0,0-.83-.14h-16v13.9ZM190.13,94.24H206a4.68,4.68,0,0,0,4.22-2.63,5,5,0,0,0,.76-2.49V84.56q0-2.14-2.63-3.39a5.17,5.17,0,0,0-2.21-.48h-16Z" transform="translate(-7.05 -6.02)"/><path class="cls-2" d="M221.25,101.22l16.11-43.9q1.87-5,5.39-5,4,0,5.88,5l16,43.84h-7.43l-3.75-10.09h-21l-3.78,10.09Zm29.63-17.08-8.08-22-7.85,22Z" transform="translate(-7.05 -6.02)"/><path class="cls-2" d="M264.46,59.81v-7h27.86v7H281.88v41.41h-7V59.81Z" transform="translate(-7.05 -6.02)"/><path class="cls-3" d="M358.5,49.53h66a0,0,0,0,1,0,0v33A31.5,31.5,0,0,1,393,114H382.55A31.5,31.5,0,0,1,351,82.5V57A7.45,7.45,0,0,1,358.5,49.53Z"/><rect class="cls-4" x="363.21" y="25.67" width="15.7" height="39.1" rx="5.07" ry="5.07"/><rect class="cls-5" x="378.91" y="23" width="15.7" height="42.94" rx="4.88" ry="4.88"/><rect class="cls-4" x="394.97" y="27.48" width="14.97" height="37.29" rx="4.85" ry="4.85"/><rect class="cls-6" x="410.28" y="34.55" width="14.22" height="29.78" rx="5.02" ry="5.02"/><path class="cls-7" d="M378.79,75.3A17.21,17.21,0,0,1,396,92.51v8.74" transform="translate(-7.05 -6.02)"/><path class="cls-8" d="M379,42.76h3.45a8.16,8.16,0,0,1,8.16,8.16V88.09a0,0,0,0,1,0,0H377.79a6.9,6.9,0,0,1-6.9-6.9V50.91A8.16,8.16,0,0,1,379,42.76Z" transform="translate(439.14 -321.36) rotate(90)"/><rect class="cls-2" x="352.7" y="57.28" width="21.01" height="19.6"/></svg>