<svg id="Calque_8" data-name="Calque 8" xmlns="http://www.w3.org/2000/svg" viewBox="0 0 458.43 140"><defs><style>.cls-1{fill:#c13028;}.cls-2,.cls-3,.cls-4,.cls-5,.cls-7,.cls-8{fill:#fff;}.cls-2,.cls-3,.cls-4,.cls-5,.cls-6,.cls-7{stroke:#c13028;stroke-miterlimit:10;}.cls-2{stroke-width:3.3px;}.cls-3{stroke-width:3.48px;}.cls-4{stroke-width:3.59px;}.cls-5,.cls-6{stroke-width:3.31px;}.cls-6{fill:none;}.cls-7{stroke-width:3.31px;}</style></defs><title>combat-vecto</title><path class="cls-1" d="M20.4,0H386.07a0,0,0,0,1,0,0V139.36a.64.64,0,0,1-.64.64H20.4A20.4,20.4,0,0,1,0,119.6V20.4A20.4,20.4,0,0,1,20.4,0Z"/><circle class="cls-1" cx="388.43" cy="70" r="70"/><path class="cls-2" d="M358.5,49.53h66a0,0,0,0,1,0,0v33A31.5,31.5,0,0,1,393,114H382.55A31.5,31.5,0,0,1,351,82.5V57A7.45,7.45,0,0,1,358.5,49.53Z"/><rect class="cls-3" x="363.21" y="25.67" width="15.7" height="39.1" rx="5.07" ry="5.07"/><rect class="cls-4" x="378.91" y="23" width="15.7" height="42.94" rx="4.88" ry="4.88"/><rect class="cls-3" x="394.97" y="27.48" width="14.97" height="37.29" rx="4.85" ry="4.85"/><rect class="cls-5" x="410.28" y="34.55" width="14.22" height="29.78" rx="5.02" ry="5.02"/><path class="cls-6" d="M378.79,75.54A17.21,17.21,0,0,1,396,92.75v8.74" transform="translate(-7.05 -6.26)"/><path class="cls-7" d="M379,43h3.45a8.16,8.16,0,0,1,8.16,8.16V88.33a0,0,0,0,1,0,0H377.79a6.9,6.9,0,0,1-6.9-6.9V51.15A8.16,8.16,0,0,1,379,43Z" transform="translate(439.38 -321.36) rotate(90)"/><rect class="cls-8" x="352.7" y="57.28" width="21.01" height="19.6"/><path class="cls-8" d="M55.38,98.07q-6.39,0-9.39-3t-3-9.3V65.15q0-6.78,3.1-9.84T56,52.23H79.5v9.13H58.64q-3.91,0-3.91,3.89V86A3,3,0,0,0,58,89.27H67.8a11.15,11.15,0,0,0,3.49-.55H79.5v8.52a46.14,46.14,0,0,1-8.67.83H55.38Z" transform="translate(-7.05 -6.26)"/><path class="cls-8" d="M125.79,85.49q0,6.85-3.1,9.94t-9.94,3.1H96.45q-6.85,0-9.94-3.1t-3.1-9.94V64.62q0-6.85,3.1-9.94t9.94-3.1h16.3q6.85,0,9.94,3.1t3.1,9.94ZM114.06,64.62q0-3.91-3.91-3.91H99.06q-3.91,0-3.91,3.91V85.49q0,3.91,3.91,3.91h11.08q3.91,0,3.91-3.91Z" transform="translate(-7.05 -6.26)"/><path class="cls-8" d="M171.43,72.45l-9.13,16.3h-9.13L144,72.45V97.87H132.31V52.23H144.7l13,24.12,13-24.12h12.39V97.87H171.43Z" transform="translate(-7.05 -6.26)"/><path class="cls-8" d="M191,52.23h26.08q6.39,0,9.39,2.9t3,8.83a10.93,10.93,0,0,1-1.7,6.36,9.13,9.13,0,0,1-4.17,3.42A11.77,11.77,0,0,1,226.45,75,8.63,8.63,0,0,1,229,77.27a12.22,12.22,0,0,1,1.76,3.49,15,15,0,0,1,.68,4.73q0,6.39-3,9.39t-9.39,3H191Zm26.73,13q0-3.91-3.91-3.91H202.72v9.13h11.08q3.91,0,3.91-3.91Zm2,18.26q0-3.91-3.91-3.91h-13v9.13h13q3.91,0,3.91-3.91Z" transform="translate(-7.05 -6.26)"/><path class="cls-8" d="M245.43,97.87H232.71L250,52.23h13l17.28,45.64H267.59l-2.93-8.15h-16.3Zm5.87-16.62h10.43l-5.22-15.32Z" transform="translate(-7.05 -6.26)"/><path class="cls-8" d="M301.17,97.87H289.43V61.36H275.74V52.23h39.12v9.13H301.17Z" transform="translate(-7.05 -6.26)"/></svg>