<svg id="Calque_11_-_copie_2" data-name="Calque 11 - copie 2" xmlns="http://www.w3.org/2000/svg" viewBox="0 0 458.43 140"><defs><style>.cls-1{fill:#f08031;}.cls-2{fill:#fff;}</style></defs><title>feu-vecto</title><path class="cls-1" d="M20.4,0H386.07a0,0,0,0,1,0,0V139.36a.64.64,0,0,1-.64.64H20.4A20.4,20.4,0,0,1,0,119.6V20.4A20.4,20.4,0,0,1,20.4,0Z"/><circle class="cls-1" cx="388.43" cy="70" r="70"/><path class="cls-2" d="M44.6,101.22V65.62q0-7,3.46-10,3.25-2.76,10.44-2.77H76.61v7H55.73q-.42.07-1.24.28-2.9,1.11-2.9,4.73v8.89H76.47v7H51.58v20.53Z" transform="translate(-7.05 -6.02)"/><path class="cls-2" d="M82.14,88.22V64.93q0-6.64,3.87-9.54,3.39-2.56,10.23-2.56h17.7v7H93.55a3.81,3.81,0,0,0-3.18,1.66,6,6,0,0,0-1.24,3.66v8.23h24.75v7H89.12v9.52a3.08,3.08,0,0,0,.35,1.39A4.74,4.74,0,0,0,92.58,94a20.52,20.52,0,0,0,4.29.28h16.87v7H95Q82.14,101.22,82.14,88.22Z" transform="translate(-7.05 -6.02)"/><path class="cls-2" d="M121.48,89.33V52.83h7V88.43q0,5.81,5.34,5.81h9.92A5.51,5.51,0,0,0,147.78,93,5.82,5.82,0,0,0,149,88.85v-36h7v36.5q0,8-7.05,11a10.7,10.7,0,0,1-4.15.9h-12a11.35,11.35,0,0,1-4.29-.9Q121.48,97.49,121.48,89.33Z" transform="translate(-7.05 -6.02)"/><path class="cls-2" d="M419.55,70c0,5.59-10,15-10,15s2.5-22.75-6-37.5C395.9,34.24,387,31,387,31s0,8-4.5,21S363,70.52,363,90.52c0,28.5,28.32,31,28.32,31s.58,0,1.57,0c-4.77-4.78-12.85-14.79-12.14-27.2,1-17.5,10.57-25.25,10.57-25.25s-3.07,14.25,0,25.75c2.76,10.31,4.93,13,4.93,13A15,15,0,0,0,404,102c3.5-4.75,3.5-8,3.5-8s1.75,10.25-2,17.5a58.94,58.94,0,0,1-5.71,8.8c8.15-2.19,19.67-8.38,22.71-25.8C425.3,78.77,419.55,67.77,419.55,70Z" transform="translate(-7.05 -6.02)"/></svg>