<svg id="Calque_11_-_copie_2" data-name="Calque 11 - copie 2" xmlns="http://www.w3.org/2000/svg" viewBox="0 0 458.43 140"><defs><style>.cls-1{fill:#f08031;}.cls-2{fill:#fff;}</style></defs><title>feu-vecto</title><path class="cls-1" d="M20.4,0H386.07a0,0,0,0,1,0,0V139.36a.64.64,0,0,1-.64.64H20.4A20.4,20.4,0,0,1,0,119.6V20.4A20.4,20.4,0,0,1,20.4,0Z"/><circle class="cls-1" cx="388.43" cy="70" r="70"/><path class="cls-2" d="M56,97.11H44.29V51.47H80.48V60.6H56V71.36H75.26v9.13H56Z" transform="translate(-7.05 -6.02)"/><path class="cls-2" d="M121.23,97.11H85V51.47h36.18V60.6H96.78v8.8H116v9.13H96.78V88h24.45Z" transform="translate(-7.05 -6.02)"/><path class="cls-2" d="M155.78,51.47h11.74V84.72q0,6.85-3.1,9.94t-9.94,3.1h-15q-6.85,0-9.94-3.1t-3.1-9.94V51.47h11.74V84.72q0,3.91,3.91,3.91h9.78q3.91,0,3.91-3.91Z" transform="translate(-7.05 -6.02)"/><path class="cls-2" d="M419.55,70c0,5.59-10,15-10,15s2.5-22.75-6-37.5C395.9,34.24,387,31,387,31s0,8-4.5,21S363,70.52,363,90.52c0,28.5,28.32,31,28.32,31s.58,0,1.57,0c-4.77-4.78-12.85-14.79-12.14-27.2,1-17.5,10.57-25.25,10.57-25.25s-3.07,14.25,0,25.75c2.76,10.31,4.93,13,4.93,13A15,15,0,0,0,404,102c3.5-4.75,3.5-8,3.5-8s1.75,10.25-2,17.5a58.94,58.94,0,0,1-5.71,8.8c8.15-2.19,19.67-8.38,22.71-25.8C425.3,78.77,419.55,67.77,419.55,70Z" transform="translate(-7.05 -6.02)"/></svg>