<svg id="Calque_11_-_copie_11" data-name="Calque 11 - copie 11" xmlns="http://www.w3.org/2000/svg" viewBox="0 0 458.43 140"><defs><style>.cls-1{fill:#6f5899;}.cls-2{fill:#fff;}</style></defs><title>vol</title><path class="cls-1" d="M20.4,0H386.07a0,0,0,0,1,0,0V139.36a.64.64,0,0,1-.64.64H20.4A20.4,20.4,0,0,1,0,119.6V20.4A20.4,20.4,0,0,1,20.4,0Z"/><circle class="cls-1" cx="388.43" cy="70" r="70"/><path class="cls-2" d="M110.48,83.42l11.08-31.95h12.71L117,97.11H104L86.68,51.47H99.4Z" transform="translate(-54 -6.02)"/><path class="cls-2" d="M177.31,84.72q0,6.85-3.1,9.94t-9.94,3.1H148q-6.85,0-9.94-3.1t-3.1-9.94V63.86q0-6.85,3.1-9.94t9.94-3.1h16.3q6.85,0,9.94,3.1t3.1,9.94ZM165.57,63.86q0-3.91-3.91-3.91H150.57q-3.91,0-3.91,3.91V84.72q0,3.91,3.91,3.91h11.08q3.91,0,3.91-3.91Z" transform="translate(-54 -6.02)"/><path class="cls-2" d="M195.56,88h23.8v9.13H183.82V51.47h11.74Z" transform="translate(-54 -6.02)"/><path class="cls-2" d="M462.78,76.15C474.23,69.27,478,56.32,478,56.32A67.21,67.21,0,0,1,461.51,66.5a40.49,40.49,0,0,1-10.81,2.83,63.1,63.1,0,0,1-12.72.35,33.87,33.87,0,0,0,10.43-2.37c6.2-2.4,13.91-5.8,19.46-9.71C478.68,50,483.77,36,483.77,36s-15.9,11.45-29.25,15.26a171.65,171.65,0,0,1-28,5.09l0,.07a26.69,26.69,0,0,0,1.3,53.35c.35,0,.69,0,1-.05l0,.05s11.49,0,19.92-3.82A37.25,37.25,0,0,0,462.43,94.6s-2.51,2.31-11.62,2c0,0-2.48-.46-3.92-.81l-6.53-1.57s3.05.26,12.44-1.79l1.72-.38A26.4,26.4,0,0,0,472,78.58s-4.77,2.54-14.94,4.45c-.91.17-1.78.29-2.63.38-8.65,1-14.07-.38-14.07-.38a32.33,32.33,0,0,0,13.84-2.61A62.1,62.1,0,0,0,462.78,76.15Z" transform="translate(-54 -6.02)"/></svg>