<svg id="Calque_11_-_copie_9" data-name="Calque 11 - copie 9" xmlns="http://www.w3.org/2000/svg" viewBox="0 0 458.43 140"><defs><style>.cls-1{fill:#6f5899;}.cls-2{fill:#fff;}</style></defs><title>spectre</title><path class="cls-1" d="M20.4,0H386.07a0,0,0,0,1,0,0V139.36a.64.64,0,0,1-.64.64H20.4A20.4,20.4,0,0,1,0,119.6V20.4A20.4,20.4,0,0,1,20.4,0Z"/><circle class="cls-1" cx="388.43" cy="70" r="70"/><path class="cls-2" d="M54.07,65.82q0,3.91,3.91,3.91H69.72q6.39,0,9.39,3t3,9.24v3.21q0,6.29-3,9.24t-9.39,3H52.38a53.06,53.06,0,0,1-9.45-.85V88.11H67.11a3.33,3.33,0,0,0,2.38-.83A2.94,2.94,0,0,0,70.37,85V79.51h-15q-6.85,0-9.94-3.1t-3.1-9.94v-2q0-6.85,3.1-9.94t9.94-3.1H78.26V60.6H58q-3.91,0-3.91,3.91Z" transform="translate(-7.05 -6.02)"/><path class="cls-2" d="M88,51.47h27.38q6.85,0,9.94,3.1t3.1,9.94V71q0,6.85-3.1,9.94t-9.94,3.1H99.71v13H88Zm28.69,13q0-3.91-3.91-3.91h-13V74.94h13q3.91,0,3.91-3.91Z" transform="translate(-7.05 -6.02)"/><path class="cls-2" d="M170.45,97.11H134.27V51.47h36.18V60.6H146v8.8h19.23v9.13H146V88h24.45Z" transform="translate(-7.05 -6.02)"/><path class="cls-2" d="M186.75,97.31q-6.39,0-9.39-3t-3-9.3V64.38q0-6.78,3.1-9.84t9.94-3.07h23.47V60.6H190q-3.91,0-3.91,3.89V85.26a3,3,0,0,0,3.26,3.24h9.81a11.15,11.15,0,0,0,3.49-.55h8.21v8.52a46.14,46.14,0,0,1-8.67.83H186.75Z" transform="translate(-7.05 -6.02)"/><path class="cls-2" d="M238.25,97.11H226.52V60.6H212.83V51.47h39.12V60.6H238.25Z" transform="translate(-7.05 -6.02)"/><path class="cls-2" d="M256.51,51.47h27.38q6.85,0,9.94,3.1t3.1,9.94v5.87q0,5.41-1.79,8.41a8.77,8.77,0,0,1-5.7,4l8.15,14.34H284.87l-7.5-13.69h-9.13V97.11H256.51Zm28.69,13q0-3.91-3.91-3.91h-13V74.29h13q3.91,0,3.91-3.91Z" transform="translate(-7.05 -6.02)"/><path class="cls-2" d="M339.63,97.11H303.45V51.47h36.18V60.6H315.19v8.8h19.23v9.13H315.19V88h24.45Z" transform="translate(-7.05 -6.02)"/><path class="cls-2" d="M413.57,76.83c9.15-6,14.23-11.79,14.23-20.2,0-13.45-14.44-24.36-32.25-24.36S363.3,43.18,363.3,56.63c0,4.09-.08,6.56,2.58,11.39s10.67,9.75,10.67,9.75,6,3.3,17.17,10.58c8.11,5.3-13.5,7.17-13.17,17.42.22,6.62,26.51,22.5,26.51,22.5s-10-14.82-7.5-18C403,105.77,421,107.64,421,98.12c0-4.93-14.53-9.36-13.31-15.13C408.34,80.14,410.68,79,413.57,76.83ZM384,62a7.5,7.5,0,1,1,7.5-7.5A7.5,7.5,0,0,1,384,62Zm23,0a7.5,7.5,0,1,1,7.5-7.5A7.5,7.5,0,0,1,407.06,62Z" transform="translate(-7.05 -6.02)"/></svg>