<svg id="Calque_4" data-name="Calque 4" xmlns="http://www.w3.org/2000/svg" viewBox="0 0 458.43 140"><defs><style>.cls-1{fill:#7cbb53;}.cls-2{fill:#fff;}</style></defs><title>plante-vecto</title><path class="cls-1" d="M20.4,0H386.07a0,0,0,0,1,0,0V139.36a.64.64,0,0,1-.64.64H20.4A20.4,20.4,0,0,1,0,119.6V20.4A20.4,20.4,0,0,1,20.4,0Z"/><circle class="cls-1" cx="388.43" cy="70" r="70"/><path class="cls-2" d="M423.39,31.34s-52.84,18.15-66.05,40.41c-9.09,15.32.66,31.5,7.63,40.11l15.75-22V65.16L384.88,84l10.87-15.21.38-16,2.19,12.37,12.4-17.37-8,17.13,12-1.46L400,70.71l-9.77,20.93,20.45-3.82L386.2,100.35l-9.15,19.6c10.41,2.45,31,4.8,41-11.21C431.78,86.78,423.39,31.34,423.39,31.34Z" transform="translate(-7.05 -6.02)"/><path class="cls-2" d="M44.6,101.22V52.83h21q13.62,0,13.62,11.55v6.91q0,5.88-3.49,9t-9.44,3.15H51.58v17.77ZM66.29,76.47a7.44,7.44,0,0,0,4.23-1,5,5,0,0,0,1.73-3.66V64.79a4.16,4.16,0,0,0-.07-.9,4.49,4.49,0,0,0-1.39-3,7.39,7.39,0,0,0-3.26-1,4.2,4.2,0,0,1-.55-.07H51.58V76.47Z" transform="translate(-7.05 -6.02)"/><path class="cls-2" d="M85.25,89.05V52.83h7V89q0,2.9,1.35,4.08a6.5,6.5,0,0,0,4.32,1.18h18.32v7H98q-6.08,0-9.33-3Q85.25,95.07,85.25,89.05Z" transform="translate(-7.05 -6.02)"/><path class="cls-2" d="M116,101.22l16.11-43.9q1.87-5,5.39-5,4,0,5.88,5l16,43.84h-7.43l-3.75-10.09h-21l-3.78,10.09Zm29.63-17.08-8.08-22-7.85,22Z" transform="translate(-7.05 -6.02)"/><path class="cls-2" d="M163,101.22V59.54q0-7.2,5.78-7.2a10,10,0,0,1,2.2.28q2.75.64,4.34,4.65L190.06,93V52.83h7V95.42a6.56,6.56,0,0,1-1.52,4.32,5.84,5.84,0,0,1-4,2.11q-4.63.55-6.91-4.84L170,62.09v39.14Z" transform="translate(-7.05 -6.02)"/><path class="cls-2" d="M201.68,59.81v-7h27.86v7H219.1v41.41h-7V59.81Z" transform="translate(-7.05 -6.02)"/><path class="cls-2" d="M234.24,88.22V64.93q0-6.64,3.87-9.54,3.39-2.56,10.23-2.56H266v7h-20.4a3.81,3.81,0,0,0-3.18,1.66,6,6,0,0,0-1.24,3.66v8.23H266v7H241.23v9.52a3.08,3.08,0,0,0,.35,1.39A4.74,4.74,0,0,0,244.68,94a20.52,20.52,0,0,0,4.29.28h16.87v7H247.1Q234.24,101.22,234.24,88.22Z" transform="translate(-7.05 -6.02)"/></svg>