<svg id="Calque_4" data-name="Calque 4" xmlns="http://www.w3.org/2000/svg" viewBox="0 0 458.43 140"><defs><style>.cls-1{fill:#7cbb53;}.cls-2{fill:#fff;}</style></defs><title>plante-vecto</title><path class="cls-1" d="M20.4,0H386.07a0,0,0,0,1,0,0V139.36a.64.64,0,0,1-.64.64H20.4A20.4,20.4,0,0,1,0,119.6V20.4A20.4,20.4,0,0,1,20.4,0Z"/><circle class="cls-1" cx="388.43" cy="70" r="70"/><path class="cls-2" d="M423.39,31.34s-52.84,18.15-66.05,40.41c-9.09,15.32.66,31.5,7.63,40.11l15.75-22V65.16L384.88,84l10.87-15.21.38-16,2.19,12.37,12.4-17.37-8,17.13,12-1.46L400,70.71l-9.77,20.93,20.45-3.82L386.2,100.35l-9.15,19.6c10.41,2.45,31,4.8,41-11.21C431.78,86.78,423.39,31.34,423.39,31.34Z" transform="translate(-7.05 -6.02)"/><path class="cls-2" d="M44.29,51.47H71.68q6.85,0,9.94,3.1t3.1,9.94V71q0,6.85-3.1,9.94t-9.94,3.1H56v13H44.29ZM73,64.51q0-3.91-3.91-3.91H56V74.94h13Q73,74.94,73,71Z" transform="translate(-7.05 -6.02)"/><path class="cls-2" d="M102.32,88h23.8v9.13H90.58V51.47h11.74Z" transform="translate(-7.05 -6.02)"/><path class="cls-2" d="M138.83,97.11H126.12l17.28-45.64h13l17.28,45.64H161L158.06,89h-16.3Zm5.87-16.62h10.43l-5.22-15.32Z" transform="translate(-7.05 -6.02)"/><path class="cls-2" d="M216.74,97.11H204.35L188.7,69.73V97.11H177V51.47h12.39L205,78.86V51.47h11.74Z" transform="translate(-7.05 -6.02)"/><path class="cls-2" d="M246.73,97.11H235V60.6H221.3V51.47h39.12V60.6H246.73Z" transform="translate(-7.05 -6.02)"/><path class="cls-2" d="M301.17,97.11H265V51.47h36.18V60.6H276.72v8.8H296v9.13H276.72V88h24.45Z" transform="translate(-7.05 -6.02)"/></svg>