<svg id="Calque_11_-_copie_8" data-name="Calque 11 - copie 8" xmlns="http://www.w3.org/2000/svg" viewBox="0 0 458.43 140"><defs><style>.cls-1{fill:#e1c168;}.cls-2{fill:#fff;}</style></defs><title>sol</title><path class="cls-1" d="M20.4,0H386.07a0,0,0,0,1,0,0V139.36a.64.64,0,0,1-.64.64H20.4A20.4,20.4,0,0,1,0,119.6V20.4A20.4,20.4,0,0,1,20.4,0Z"/><circle class="cls-1" cx="388.43" cy="70" r="70"/><path class="cls-2" d="M54.07,65.82q0,3.91,3.91,3.91H69.72q6.39,0,9.39,3t3,9.24v3.21q0,6.29-3,9.24t-9.39,3H52.38a53.06,53.06,0,0,1-9.45-.85V88.11H67.11a3.33,3.33,0,0,0,2.38-.83A2.94,2.94,0,0,0,70.37,85V79.51h-15q-6.85,0-9.94-3.1t-3.1-9.94v-2q0-6.85,3.1-9.94t9.94-3.1H78.26V60.6H58q-3.91,0-3.91,3.91Z" transform="translate(-7.05 -6.02)"/><path class="cls-2" d="M129.05,84.72q0,6.85-3.1,9.94T116,97.76H99.71q-6.85,0-9.94-3.1t-3.1-9.94V63.86q0-6.85,3.1-9.94t9.94-3.1H116q6.85,0,9.94,3.1t3.1,9.94ZM117.32,63.86q0-3.91-3.91-3.91H102.32q-3.91,0-3.91,3.91V84.72q0,3.91,3.91,3.91H113.4q3.91,0,3.91-3.91Z" transform="translate(-7.05 -6.02)"/><path class="cls-2" d="M147.31,88h23.8v9.13H135.57V51.47h11.74Z" transform="translate(-7.05 -6.02)"/><ellipse class="cls-2" cx="389" cy="83.75" rx="42" ry="16.75"/><path class="cls-2" d="M358.88,76.49a49.75,49.75,0,0,1,12-4.84,2.28,2.28,0,0,0,.81-4l-1.13-.88A124.53,124.53,0,0,1,354.5,51a2.29,2.29,0,0,0-4,1.16A33,33,0,0,0,354,73a29.31,29.31,0,0,0,1.85,2.89A2.26,2.26,0,0,0,358.88,76.49Z" transform="translate(-7.05 -6.02)"/><path class="cls-2" d="M396,68.45a93.49,93.49,0,0,1,9.53.49c2,.2,3.45-2.14,2.6-4.23q-.57-1.4-1.27-2.75l-8.51-16.47a2.42,2.42,0,0,0-4.43,0L385.26,61.9q-.72,1.37-1.3,2.79c-.86,2.09.61,4.45,2.6,4.24A93.5,93.5,0,0,1,396,68.45Z" transform="translate(-7.05 -6.02)"/><path class="cls-2" d="M433,76.37a2.61,2.61,0,0,0,3.45-.73A29.42,29.42,0,0,0,438.13,73a32.77,32.77,0,0,0,3.64-20.09,2.59,2.59,0,0,0-4.53-1.39,122.82,122.82,0,0,1-15.61,15.24l-.66.52a2.59,2.59,0,0,0,.91,4.54A49.3,49.3,0,0,1,433,76.37Z" transform="translate(-7.05 -6.02)"/></svg>