<svg id="Calque_11_-_copie_3" data-name="Calque 11 - copie 3" xmlns="http://www.w3.org/2000/svg" viewBox="0 0 458.43 140"><defs><style>.cls-1{fill:#9ad3d4;}.cls-2{fill:#fff;}</style></defs><title>glace-vecto</title><path class="cls-1" d="M20.4,0H386.07a0,0,0,0,1,0,0V139.36a.64.64,0,0,1-.64.64H20.4A20.4,20.4,0,0,1,0,119.6V20.4A20.4,20.4,0,0,1,20.4,0Z"/><circle class="cls-1" cx="388.43" cy="70" r="70"/><path class="cls-2" d="M55.38,97.57q-6.39,0-9.39-3t-3-9.35V64.46q0-6.82,3.1-9.9T56,51.47H79.5V60.6H58.64q-3.91,0-3.91,3.89V85.26A3,3,0,0,0,58,88.5H71.68V78.86H63.2V71H83.41V96.17a70.9,70.9,0,0,1-9.84.68,54.82,54.82,0,0,1-9.13.72Z" transform="translate(-7.05 -6.02)"/><path class="cls-2" d="M101.67,88h23.8v9.13H89.93V51.47h11.74Z" transform="translate(-7.05 -6.02)"/><path class="cls-2" d="M138.18,97.11H125.46l17.28-45.64h13l17.28,45.64H160.34L157.41,89h-16.3ZM144,80.49h10.43l-5.22-15.32Z" transform="translate(-7.05 -6.02)"/><path class="cls-2" d="M186.1,97.31q-6.39,0-9.39-3t-3-9.3V64.38q0-6.78,3.1-9.84t9.94-3.07h23.47V60.6H189.36q-3.91,0-3.91,3.89V85.26a3,3,0,0,0,3.26,3.24h9.81A11.15,11.15,0,0,0,202,88h8.21v8.52a46.14,46.14,0,0,1-8.67.83H186.1Z" transform="translate(-7.05 -6.02)"/><path class="cls-2" d="M251.62,97.11H215.44V51.47h36.18V60.6H227.17v8.8H246.4v9.13H227.17V88h24.45Z" transform="translate(-7.05 -6.02)"/><polygon class="cls-2" points="433.11 91.36 424.73 86.68 432.22 83.34 428.71 75.47 415.35 81.43 396.17 70.71 415.98 59.16 429.45 64.88 432.81 56.95 425.27 53.75 432.73 49.4 428.39 41.95 420.96 46.28 421.91 38.26 413.36 37.25 411.65 51.71 391.84 63.26 391.84 40.39 403.56 31.63 398.4 24.73 391.84 29.64 391.84 21 383.22 21 383.22 29.6 376.76 24.74 371.58 31.63 383.22 40.38 383.22 63.47 363.13 52.23 361.2 37.73 352.66 38.86 353.74 46.98 346.21 42.77 342 50.29 349.5 54.49 342.11 57.75 345.59 65.63 358.92 59.75 378.79 70.86 359.95 81.85 346.52 76.2 343.18 84.14 350.63 87.28 342.37 92.09 346.71 99.53 355 94.7 354.07 102.84 362.63 103.82 364.29 89.28 383.22 78.25 383.22 100.23 371.58 108.99 376.76 115.87 383.22 111.01 383.22 120.56 391.84 120.56 391.84 110.97 398.4 115.88 403.56 108.98 391.84 100.22 391.84 78.16 411.15 88.95 413.11 103.39 421.65 102.22 420.56 94.22 428.9 98.88 433.11 91.36"/></svg>