<svg id="Calque_11_-_copie_3" data-name="Calque 11 - copie 3" xmlns="http://www.w3.org/2000/svg" viewBox="0 0 458.43 140"><defs><style>.cls-1{fill:#9ad3d4;}.cls-2{fill:#fff;}</style></defs><title>glace-vecto</title><path class="cls-1" d="M20.4,0H386.07a0,0,0,0,1,0,0V139.36a.64.64,0,0,1-.64.64H20.4A20.4,20.4,0,0,1,0,119.6V20.4A20.4,20.4,0,0,1,20.4,0Z"/><circle class="cls-1" cx="388.43" cy="70" r="70"/><path class="cls-2" d="M44.6,88.71V65.55q0-12.72,12.93-12.72H76.06v7H56.42l-.35.07a5.47,5.47,0,0,0-3.53,1.49,5.69,5.69,0,0,0-1,3.7V89.12a8.93,8.93,0,0,0,.14,1,4.45,4.45,0,0,0,3.73,4.08H67.07q4.49,0,5.12-4.22a2.81,2.81,0,0,0,.07-.76V73.64h7V88.5a14.47,14.47,0,0,1-1.11,6.22,11,11,0,0,1-4.32,5,13.73,13.73,0,0,1-6.74,1.45H57.39A13.8,13.8,0,0,1,51.24,100a11.81,11.81,0,0,1-5.15-4.49A13.81,13.81,0,0,1,44.6,88.71Z" transform="translate(-7.05 -6.02)"/><path class="cls-2" d="M87.67,89.05V52.83h7V89q0,2.9,1.35,4.08a6.5,6.5,0,0,0,4.32,1.18h18.32v7H100.46q-6.08,0-9.33-3Q87.67,95.07,87.67,89.05Z" transform="translate(-7.05 -6.02)"/><path class="cls-2" d="M118.44,101.22l16.11-43.9q1.87-5,5.39-5,4,0,5.88,5l16,43.84h-7.43l-3.75-10.09h-21l-3.78,10.09Zm29.63-17.08-8.08-22-7.85,22Z" transform="translate(-7.05 -6.02)"/><path class="cls-2" d="M165.45,89.61V64.72a12.22,12.22,0,0,1,3-8.54,10.47,10.47,0,0,1,8.16-3.35H197v7H177.55q-5.12,0-5.12,5.12V89.05a5.05,5.05,0,0,0,1.49,3.66,4.88,4.88,0,0,0,3.63,1.52h19.29v7H176.1A11,11,0,0,1,170,99.15Q165.45,96.11,165.45,89.61Z" transform="translate(-7.05 -6.02)"/><path class="cls-2" d="M204,88.22V64.93q0-6.64,3.87-9.54,3.39-2.56,10.23-2.56h17.7v7h-20.4a3.81,3.81,0,0,0-3.18,1.66A6,6,0,0,0,211,65.13v8.23h24.75v7H211v9.52a3.08,3.08,0,0,0,.35,1.39A4.74,4.74,0,0,0,214.47,94a20.52,20.52,0,0,0,4.29.28h16.87v7H216.89Q204,101.22,204,88.22Z" transform="translate(-7.05 -6.02)"/><polygon class="cls-2" points="433.11 91.36 424.73 86.68 432.22 83.34 428.71 75.47 415.35 81.43 396.17 70.71 415.98 59.16 429.45 64.88 432.81 56.95 425.27 53.75 432.73 49.4 428.39 41.95 420.96 46.28 421.91 38.26 413.36 37.25 411.65 51.71 391.84 63.26 391.84 40.39 403.56 31.63 398.4 24.73 391.84 29.64 391.84 21 383.22 21 383.22 29.6 376.76 24.74 371.58 31.63 383.22 40.38 383.22 63.47 363.13 52.23 361.2 37.73 352.66 38.86 353.74 46.98 346.21 42.77 342 50.29 349.5 54.49 342.11 57.75 345.59 65.63 358.92 59.75 378.79 70.86 359.95 81.85 346.52 76.2 343.18 84.14 350.63 87.28 342.37 92.09 346.71 99.53 355 94.7 354.07 102.84 362.63 103.82 364.29 89.28 383.22 78.25 383.22 100.23 371.58 108.99 376.76 115.87 383.22 111.01 383.22 120.56 391.84 120.56 391.84 110.97 398.4 115.88 403.56 108.98 391.84 100.22 391.84 78.16 411.15 88.95 413.11 103.39 421.65 102.22 420.56 94.22 428.9 98.88 433.11 91.36"/></svg>