<svg id="Calque_11_-_copie_6" data-name="Calque 11 - copie 6" xmlns="http://www.w3.org/2000/svg" viewBox="0 0 458.43 140"><defs><style>.cls-1{fill:#a8a878;}.cls-2{fill:#fff;}.cls-3{fill:none;stroke:#fff;stroke-miterlimit:10;stroke-width:11px;}</style></defs><title>normal</title><path class="cls-1" d="M20.4,0H386.07a0,0,0,0,1,0,0V139.36a.64.64,0,0,1-.64.64H20.4A20.4,20.4,0,0,1,0,119.6V20.4A20.4,20.4,0,0,1,20.4,0Z"/><circle class="cls-1" cx="388.43" cy="70" r="70"/><path class="cls-2" d="M84.07,97.11H71.68L56,69.73V97.11H44.29V51.47H56.68L72.33,78.86V51.47H84.07Z" transform="translate(-7.05 -6.02)"/><path class="cls-2" d="M133,84.72q0,6.85-3.1,9.94t-9.94,3.1h-16.3q-6.85,0-9.94-3.1t-3.1-9.94V63.86q0-6.85,3.1-9.94t9.94-3.1h16.3q6.85,0,9.94,3.1t3.1,9.94ZM121.23,63.86q0-3.91-3.91-3.91H106.23q-3.91,0-3.91,3.91V84.72q0,3.91,3.91,3.91h11.08q3.91,0,3.91-3.91Z" transform="translate(-7.05 -6.02)"/><path class="cls-2" d="M139.48,51.47h27.38q6.85,0,9.94,3.1t3.1,9.94v5.87q0,5.41-1.79,8.41a8.77,8.77,0,0,1-5.7,4l8.15,14.34H167.84l-7.5-13.69h-9.13V97.11H139.48Zm28.69,13q0-3.91-3.91-3.91h-13V74.29h13q3.91,0,3.91-3.91Z" transform="translate(-7.05 -6.02)"/><path class="cls-2" d="M225.54,71.68,216.41,88h-9.13l-9.13-16.3V97.11H186.42V51.47h12.39l13,24.12,13-24.12h12.39V97.11H225.54Z" transform="translate(-7.05 -6.02)"/><path class="cls-2" d="M253.25,97.11H240.54l17.28-45.64h13l17.28,45.64H275.42L272.48,89h-16.3Zm5.87-16.62h10.43l-5.22-15.32Z" transform="translate(-7.05 -6.02)"/><path class="cls-2" d="M303.12,88h23.8v9.13H291.39V51.47h11.74Z" transform="translate(-7.05 -6.02)"/><circle class="cls-3" cx="387.23" cy="71.5" r="34.5"/></svg>