<svg id="Calque_2" data-name="Calque 2" xmlns="http://www.w3.org/2000/svg" viewBox="0 0 458.43 140"><defs><style>.cls-1{fill:#974493;}.cls-2{fill:#fff;}</style></defs><title>poison-vecto</title><path class="cls-1" d="M25,0H388.72a69.72,69.72,0,0,1,69.72,69.72v3.07A67.22,67.22,0,0,1,391.22,140H25A25,25,0,0,1,0,115V25A25,25,0,0,1,25,0Z"/><circle class="cls-1" cx="388.43" cy="70" r="70"/><path class="cls-2" d="M437.79,73.68a42.31,42.31,0,1,0-84.62,0c0,13.17,13.44,24.94,25.17,32.69v6.82a8.77,8.77,0,0,0,8.74,8.74h3.15v-15h10.49v15h3.15a8.77,8.77,0,0,0,8.74-8.74v-6.81C424.35,98.62,437.79,86.85,437.79,73.68ZM368.91,66a9.44,9.44,0,1,1,9.44,9.44A9.44,9.44,0,0,1,368.91,66Zm42.46,9.44A9.44,9.44,0,1,1,420.81,66,9.44,9.44,0,0,1,411.37,75.43Z" transform="translate(-7.05 -6.02)"/><path class="cls-2" d="M44.29,51.47H71.68q6.85,0,9.94,3.1t3.1,9.94V71q0,6.85-3.1,9.94t-9.94,3.1H56v13H44.29ZM73,64.51q0-3.91-3.91-3.91H56V74.94h13Q73,74.94,73,71Z" transform="translate(-7.05 -6.02)"/><path class="cls-2" d="M131.66,84.72q0,6.85-3.1,9.94t-9.94,3.1h-16.3q-6.85,0-9.94-3.1t-3.1-9.94V63.86q0-6.85,3.1-9.94t9.94-3.1h16.3q6.85,0,9.94,3.1t3.1,9.94ZM119.92,63.86q0-3.91-3.91-3.91H104.93q-3.91,0-3.91,3.91V84.72q0,3.91,3.91,3.91H116q3.91,0,3.91-3.91Z" transform="translate(-7.05 -6.02)"/><path class="cls-2" d="M159.69,97.11H136.22V88h5.87V60.6h-5.87V51.47h23.47V60.6h-5.87V88h5.87Z" transform="translate(-7.05 -6.02)"/><path class="cls-2" d="M175.34,65.82q0,3.91,3.91,3.91H191q6.39,0,9.39,3t3,9.24v3.21q0,6.29-3,9.24t-9.39,3H173.64a53.06,53.06,0,0,1-9.45-.85V88.11h24.19a3.33,3.33,0,0,0,2.38-.83,2.94,2.94,0,0,0,.88-2.24V79.51h-15q-6.85,0-9.94-3.1t-3.1-9.94v-2q0-6.85,3.1-9.94t9.94-3.1h22.88V60.6H179.25q-3.91,0-3.91,3.91Z" transform="translate(-7.05 -6.02)"/><path class="cls-2" d="M250.32,84.72q0,6.85-3.1,9.94t-9.94,3.1H221q-6.85,0-9.94-3.1t-3.1-9.94V63.86q0-6.85,3.1-9.94t9.94-3.1h16.3q6.85,0,9.94,3.1t3.1,9.94ZM238.58,63.86q0-3.91-3.91-3.91H223.58q-3.91,0-3.91,3.91V84.72q0,3.91,3.91,3.91h11.08q3.91,0,3.91-3.91Z" transform="translate(-7.05 -6.02)"/><path class="cls-2" d="M296.61,97.11H284.22L268.57,69.73V97.11H256.84V51.47h12.39l15.65,27.38V51.47h11.74Z" transform="translate(-7.05 -6.02)"/></svg>