<svg id="Calque_2" data-name="Calque 2" xmlns="http://www.w3.org/2000/svg" viewBox="0 0 458.43 140"><defs><style>.cls-1{fill:#974493;}.cls-2{fill:#fff;}</style></defs><title>poison-vecto</title><path class="cls-1" d="M25,0H388.72a69.72,69.72,0,0,1,69.72,69.72v3.07A67.22,67.22,0,0,1,391.22,140H25A25,25,0,0,1,0,115V25A25,25,0,0,1,25,0Z"/><circle class="cls-1" cx="388.43" cy="70" r="70"/><path class="cls-2" d="M437.79,73.68a42.31,42.31,0,1,0-84.62,0c0,13.17,13.44,24.94,25.17,32.69v6.82a8.77,8.77,0,0,0,8.74,8.74h3.15v-15h10.49v15h3.15a8.77,8.77,0,0,0,8.74-8.74v-6.81C424.35,98.62,437.79,86.85,437.79,73.68ZM368.91,66a9.44,9.44,0,1,1,9.44,9.44A9.44,9.44,0,0,1,368.91,66Zm42.46,9.44A9.44,9.44,0,1,1,420.81,66,9.44,9.44,0,0,1,411.37,75.43Z" transform="translate(-7.05 -6.02)"/><path class="cls-2" d="M44.6,103.42V55h21q13.62,0,13.62,11.55v6.91q0,5.88-3.49,9t-9.44,3.15H51.58v17.77ZM66.29,78.67a7.44,7.44,0,0,0,4.23-1A5,5,0,0,0,72.26,74V67a4.16,4.16,0,0,0-.07-.9,4.49,4.49,0,0,0-1.39-3,7.39,7.39,0,0,0-3.26-1A4.2,4.2,0,0,1,67,62H51.58V78.67Z" transform="translate(-7.05 -6.02)"/><path class="cls-2" d="M85.25,89.87V68.58Q85.25,61.25,89,58q3.53-3,11-3h5.32q7.47,0,11,3Q120,61.25,120,68.58V89.87q0,7.33-3.73,10.58-3.53,3-11,3H100q-9.61,0-13.14-6.78A14.39,14.39,0,0,1,85.25,89.87ZM99,96.44h7.49q3.61,0,5.1-1.31T113,90.28v-22q0-3.59-1.46-4.94T106.46,62H99q-3.68,0-5.2,1.35T92.24,68.3V90.15q0,3.6,1.53,4.94T99,96.44Z" transform="translate(-7.05 -6.02)"/><path class="cls-2" d="M128.46,103.42V55h7v48.4Z" transform="translate(-7.05 -6.02)"/><path class="cls-2" d="M142.64,103.42v-7h20a4.49,4.49,0,0,0,2.73-1.29,3.58,3.58,0,0,0,1.21-2.67V86.29q0-3.4-4.37-4a2.82,2.82,0,0,0-.76-.07h-7.28a12.88,12.88,0,0,1-8-2.56,8.71,8.71,0,0,1-3.61-7.26V66.29q0-7.6,5.95-10.37a14,14,0,0,1,5.67-.9h19.63v7H153.56a1.13,1.13,0,0,1-.35.07q-3.6.55-3.6,3.94v4.77q0,5,4.56,5h8.5a11.73,11.73,0,0,1,5.95,1.59q5,2.84,5,7.74v7.61a9.94,9.94,0,0,1-4.48,8.64,11,11,0,0,1-6.41,2Z" transform="translate(-7.05 -6.02)"/><path class="cls-2" d="M180.94,89.87V68.58q0-7.33,3.73-10.58,3.53-3,11-3H201q7.47,0,11,3,3.73,3.25,3.73,10.58V89.87q0,7.33-3.73,10.58-3.53,3-11,3h-5.32q-9.61,0-13.14-6.78A14.39,14.39,0,0,1,180.94,89.87Zm13.71,6.57h7.49q3.61,0,5.1-1.31t1.49-4.84v-22q0-3.59-1.46-4.94T202.14,62h-7.49q-3.68,0-5.2,1.35t-1.53,4.94V90.15q0,3.6,1.53,4.94T194.65,96.44Z" transform="translate(-7.05 -6.02)"/><path class="cls-2" d="M224.15,103.42V61.74q0-7.2,5.78-7.2a10,10,0,0,1,2.2.28q2.75.64,4.34,4.65l14.72,35.76V55h7V97.61a6.56,6.56,0,0,1-1.52,4.32,5.84,5.84,0,0,1-4,2.11q-4.63.55-6.91-4.84L231.13,64.29v39.14Z" transform="translate(-7.05 -6.02)"/></svg>