<svg id="Calque_11_-_copie_7" data-name="Calque 11 - copie 7" xmlns="http://www.w3.org/2000/svg" viewBox="0 0 458.43 140"><defs><style>.cls-1{fill:#eb5787;}.cls-2{fill:#fff;}</style></defs><title>psy</title><path class="cls-1" d="M20.4,0H386.07a0,0,0,0,1,0,0V139.36a.64.64,0,0,1-.64.64H20.4A20.4,20.4,0,0,1,0,119.6V20.4A20.4,20.4,0,0,1,20.4,0Z"/><circle class="cls-1" cx="388.43" cy="70" r="70"/><path class="cls-2" d="M44.29,51.47H71.68q6.85,0,9.94,3.1t3.1,9.94V71q0,6.85-3.1,9.94t-9.94,3.1H56v13H44.29ZM73,64.51q0-3.91-3.91-3.91H56V74.94h13Q73,74.94,73,71Z" transform="translate(-7.05 -6.02)"/><path class="cls-2" d="M100.36,65.82q0,3.91,3.91,3.91H116q6.39,0,9.39,3t3,9.24v3.21q0,6.29-3,9.24t-9.39,3H98.67a53.06,53.06,0,0,1-9.45-.85V88.11H113.4a3.33,3.33,0,0,0,2.38-.83,2.94,2.94,0,0,0,.88-2.24V79.51h-15q-6.85,0-9.94-3.1t-3.1-9.94v-2q0-6.85,3.1-9.94t9.94-3.1h22.88V60.6H104.28q-3.91,0-3.91,3.91Z" transform="translate(-7.05 -6.02)"/><path class="cls-2" d="M127.09,51.47h12.39l10.76,22.17L161,51.47h12.39L156.11,85V97.11H144.37V85Z" transform="translate(-7.05 -6.02)"/><path class="cls-2" d="M396,52A63.9,63.9,0,0,0,344.22,78.5a64,64,0,0,0,41.53,25.64,20.44,20.44,0,1,1,20.6,0A64,64,0,0,0,447.88,78.5,63.9,63.9,0,0,0,396,52Z" transform="translate(-7.05 -6.02)"/><path class="cls-2" d="M396,73.09a13.44,13.44,0,1,0,13.44,13.44A13.45,13.45,0,0,0,396,73.09Z" transform="translate(-7.05 -6.02)"/></svg>