<svg id="Calque_11_-_copie_8" data-name="Calque 11 - copie 8" xmlns="http://www.w3.org/2000/svg" viewBox="0 0 458.43 140"><defs><style>.cls-1{fill:#b8a038;}.cls-2{fill:#fff;}</style></defs><title>roche</title><path class="cls-1" d="M20.4,0H386.07a0,0,0,0,1,0,0V139.36a.64.64,0,0,1-.64.64H20.4A20.4,20.4,0,0,1,0,119.6V20.4A20.4,20.4,0,0,1,20.4,0Z"/><circle class="cls-1" cx="388.43" cy="70" r="70"/><path class="cls-2" d="M44.29,51.47H71.68q6.85,0,9.94,3.1t3.1,9.94v5.87q0,5.41-1.79,8.41a8.77,8.77,0,0,1-5.7,4l8.15,14.34H72.66l-7.5-13.69H56V97.11H44.29ZM73,64.51q0-3.91-3.91-3.91H56V74.29h13q3.91,0,3.91-3.91Z" transform="translate(-7.05 -6.02)"/><path class="cls-2" d="M132.31,84.72q0,6.85-3.1,9.94t-9.94,3.1H103q-6.85,0-9.94-3.1t-3.1-9.94V63.86q0-6.85,3.1-9.94t9.94-3.1h16.3q6.85,0,9.94,3.1t3.1,9.94ZM120.57,63.86q0-3.91-3.91-3.91H105.58q-3.91,0-3.91,3.91V84.72q0,3.91,3.91,3.91h11.08q3.91,0,3.91-3.91Z" transform="translate(-7.05 -6.02)"/><path class="cls-2" d="M149.91,97.31q-6.39,0-9.39-3t-3-9.3V64.38q0-6.78,3.1-9.84t9.94-3.07H174V60.6H153.17q-3.91,0-3.91,3.89V85.26a3,3,0,0,0,3.26,3.24h9.81a11.15,11.15,0,0,0,3.49-.55H174v8.52a46.14,46.14,0,0,1-8.67.83H149.91Z" transform="translate(-7.05 -6.02)"/><path class="cls-2" d="M219,97.11H207.29V78.53H191V97.11H179.25V51.47H191V69.4h16.3V51.47H219Z" transform="translate(-7.05 -6.02)"/><path class="cls-2" d="M263,97.11H226.84V51.47H263V60.6H238.58v8.8h19.23v9.13H238.58V88H263Z" transform="translate(-7.05 -6.02)"/><path class="cls-2" d="M410.12,60h19.15l-4.16-10.53a7.13,7.13,0,0,0-5.8-4.46L405.8,43.43Z" transform="translate(-7.05 -6.02)"/><path class="cls-2" d="M409,66,366,107.24a7.09,7.09,0,0,0,3.23.78h47.93a7.13,7.13,0,0,0,7-5.84l6.56-35.65c0-.17,0-.34.06-.51Z" transform="translate(-7.05 -6.02)"/><path class="cls-2" d="M404.45,62.07l-5-19.39h0a7.13,7.13,0,0,0-2.56.16l-29.35,7.33a7.13,7.13,0,0,0-5.4,6.92v43.8a7.14,7.14,0,0,0,.19,1.6Z" transform="translate(-7.05 -6.02)"/></svg>