<svg id="Calque_6" data-name="Calque 6" xmlns="http://www.w3.org/2000/svg" viewBox="0 0 458.43 140.48"><defs><style>.cls-1{fill:#9d9d9c;}.cls-2{fill:#fff;}</style></defs><title>acier-vecto</title><path class="cls-1" d="M20.4.48H386.07a0,0,0,0,1,0,0V139.84a.64.64,0,0,1-.64.64H20.4A20.4,20.4,0,0,1,0,120.08V20.88A20.4,20.4,0,0,1,20.4.48Z"/><circle class="cls-1" cx="388.43" cy="70" r="70"/><path class="cls-2" d="M52.44,95.11H39.73L57,49.47H70L87.32,95.11H74.61L71.68,87H55.38Zm5.87-16.62H68.74L63.53,63.16Z" transform="translate(-7.05 -6.02)"/><path class="cls-2" d="M100.36,95.3q-6.39,0-9.39-3T88,83V62.38q0-6.78,3.1-9.84T101,49.47h23.47V58.6H103.62q-3.91,0-3.91,3.89V83.26A3,3,0,0,0,103,86.5h9.81a11.15,11.15,0,0,0,3.49-.55h8.21v8.52a46.14,46.14,0,0,1-8.67.83H100.36Z" transform="translate(-7.05 -6.02)"/><path class="cls-2" d="M151.22,95.11H127.75V86h5.87V58.6h-5.87V49.47h23.47V58.6h-5.87V86h5.87Z" transform="translate(-7.05 -6.02)"/><path class="cls-2" d="M193.27,95.11H157.08V49.47h36.18V58.6H168.82v8.8h19.23v9.13H168.82V86h24.45Z" transform="translate(-7.05 -6.02)"/><path class="cls-2" d="M198.48,49.47h27.38q6.85,0,9.94,3.1t3.1,9.94v5.87q0,5.41-1.79,8.41a8.77,8.77,0,0,1-5.7,4l8.15,14.34H226.85l-7.5-13.69h-9.13V95.11H198.48Zm28.69,13q0-3.91-3.91-3.91h-13V72.29h13q3.91,0,3.91-3.91Z" transform="translate(-7.05 -6.02)"/><path class="cls-2" d="M382.66,35.32l2.7,8.7-2.53-8.75h0Z" transform="translate(-7.05 -6.02)"/><path class="cls-2" d="M437,86.32l-11-2.59a31.58,31.58,0,0,0-.51-16.39l10.84-3.27a43,43,0,0,0-11.73-18.93l-7.76,8.27a31.66,31.66,0,0,0-14.44-7.77l2.6-11a43.08,43.08,0,0,0-22.17.66L386,46.14a31.75,31.75,0,0,0-13.91,8.64L363.78,47A43.21,43.21,0,0,0,353.25,66.6l11,2.61a31.57,31.57,0,0,0,.49,16.39l-10.84,3.25a43,43,0,0,0,11.7,18.95l7.77-8.26a31.67,31.67,0,0,0,14.43,7.8l-2.62,11a42.86,42.86,0,0,0,22.31-.66l.16,0-3.37-10.81a31.75,31.75,0,0,0,13.94-8.67l8.28,7.75A43.21,43.21,0,0,0,437,86.32Zm-41.89,5.89A15.71,15.71,0,1,1,410.83,76.5,15.73,15.73,0,0,1,395.13,92.21Z" transform="translate(-7.05 -6.02)"/><polygon class="cls-2" points="375.77 29.25 375.77 29.25 375.77 29.25 375.77 29.25"/></svg>