<svg id="Calque_6" data-name="Calque 6" xmlns="http://www.w3.org/2000/svg" viewBox="0 0 458.43 140"><defs><style>.cls-1{fill:#9d9d9c;}.cls-2{fill:#fff;}</style></defs><title>acier-vecto</title><path class="cls-1" d="M20.4,0H386.07a0,0,0,0,1,0,0V139.36a.64.64,0,0,1-.64.64H20.4A20.4,20.4,0,0,1,0,119.6V20.4A20.4,20.4,0,0,1,20.4,0Z"/><circle class="cls-1" cx="388.43" cy="70" r="70"/><path class="cls-2" d="M39.76,101.22l16.11-43.9q1.87-5,5.39-5,4,0,5.88,5l16,43.84H75.68L71.93,91.13H51L47.2,101.22ZM69.39,84.15l-8.08-22-7.85,22Z" transform="translate(-7.05 -6.02)"/><path class="cls-2" d="M86.77,89.61V64.72a12.22,12.22,0,0,1,3-8.54A10.47,10.47,0,0,1,98,52.83H118.3v7H98.87q-5.12,0-5.12,5.12V89.05a5.05,5.05,0,0,0,1.49,3.66,4.88,4.88,0,0,0,3.63,1.52h19.29v7H97.42a11,11,0,0,1-6.08-2.07Q86.77,96.11,86.77,89.61Z" transform="translate(-7.05 -6.02)"/><path class="cls-2" d="M125.35,101.22V52.83h7v48.4Z" transform="translate(-7.05 -6.02)"/><path class="cls-2" d="M140.84,88.22V64.93q0-6.64,3.87-9.54,3.39-2.56,10.23-2.56h17.7v7h-20.4a3.81,3.81,0,0,0-3.18,1.66,6,6,0,0,0-1.24,3.66v8.23h24.75v7H147.82v9.52a3.08,3.08,0,0,0,.35,1.39A4.74,4.74,0,0,0,151.28,94a20.52,20.52,0,0,0,4.29.28h16.87v7H153.7Q140.84,101.22,140.84,88.22Z" transform="translate(-7.05 -6.02)"/><path class="cls-2" d="M180.18,101.22V52.83h24.47a10.16,10.16,0,0,1,6.15,1.87,9.73,9.73,0,0,1,4.08,8.23v8.3a9.23,9.23,0,0,1-2.77,6.6,8.71,8.71,0,0,1-6.45,2.87h-8.33l17.87,20.53H206l-17.84-20.6a3.79,3.79,0,0,1-.42-3.56q1-3.35,5.06-3.35H204q3.88-.63,3.88-3.91V64.35q0-3.84-3.61-4.47a1.09,1.09,0,0,1-.35-.07H187.16v41.41Z" transform="translate(-7.05 -6.02)"/><path class="cls-2" d="M382.66,35.32l2.7,8.7-2.53-8.75h0Z" transform="translate(-7.05 -6.02)"/><path class="cls-2" d="M437,86.32l-11-2.59a31.58,31.58,0,0,0-.51-16.39l10.84-3.27a43,43,0,0,0-11.73-18.93l-7.76,8.27a31.66,31.66,0,0,0-14.44-7.77l2.6-11a43.08,43.08,0,0,0-22.17.66L386,46.14a31.75,31.75,0,0,0-13.91,8.64L363.78,47A43.21,43.21,0,0,0,353.25,66.6l11,2.61a31.57,31.57,0,0,0,.49,16.39l-10.84,3.25a43,43,0,0,0,11.7,18.95l7.77-8.26a31.67,31.67,0,0,0,14.43,7.8l-2.62,11a42.86,42.86,0,0,0,22.31-.66l.16,0-3.37-10.81a31.75,31.75,0,0,0,13.94-8.67l8.28,7.75A43.21,43.21,0,0,0,437,86.32Zm-41.89,5.89A15.71,15.71,0,1,1,410.83,76.5,15.73,15.73,0,0,1,395.13,92.21Z" transform="translate(-7.05 -6.02)"/><polygon class="cls-2" points="375.77 29.25 375.77 29.25 375.77 29.25 375.77 29.25"/></svg>