<svg id="Calque_11_-_copie_12" data-name="Calque 11 - copie 12" xmlns="http://www.w3.org/2000/svg" viewBox="0 0 458.43 140"><defs><style>.cls-1{fill:#00a19a;}.cls-2{fill:#fff;}</style></defs><title>stellaire</title><path class="cls-1" d="M20.4,0H386.07a0,0,0,0,1,0,0V139.36a.64.64,0,0,1-.64.64H20.4A20.4,20.4,0,0,1,0,119.6V20.4A20.4,20.4,0,0,1,20.4,0Z"/><circle class="cls-1" cx="388.43" cy="70" r="70"/><path class="cls-2" d="M51.88,65.82q0,3.91,3.29,3.91H65q5.37,0,7.89,3t2.52,9.24v3.21q0,6.29-2.52,9.24t-7.89,3H50.46a37.66,37.66,0,0,1-7.94-.85V88.11H62.84a2.54,2.54,0,0,0,2-.83A3.25,3.25,0,0,0,65.57,85V79.51H53q-5.75,0-8.35-3.1T42,66.47v-2q0-6.85,2.6-9.94T53,51.47H72.2V60.6h-17q-3.29,0-3.29,3.91Z" transform="translate(-7.05 -6.02)"/><path class="cls-2" d="M94.88,97.11H85V60.6H73.52V51.47h32.86V60.6H94.88Z" transform="translate(-7.05 -6.02)"/><path class="cls-2" d="M139.23,97.11H108.84V51.47h30.39V60.6H118.7v8.8h16.16v9.13H118.7V88h20.54Z" transform="translate(-7.05 -6.02)"/><path class="cls-2" d="M152.1,88h20v9.13H142.25V51.47h9.86Z" transform="translate(-7.05 -6.02)"/><path class="cls-2" d="M184.42,88h20v9.13H174.56V51.47h9.86Z" transform="translate(-7.05 -6.02)"/><path class="cls-2" d="M213.71,97.11H203l14.51-45.64h11L243,97.11H232.33L229.87,89H216.18Zm4.93-16.62h8.76L223,65.16Z" transform="translate(-7.05 -6.02)"/><path class="cls-2" d="M262.45,97.11H242.74V88h4.93V60.6h-4.93V51.47h19.72V60.6h-4.93V88h4.93Z" transform="translate(-7.05 -6.02)"/><path class="cls-2" d="M266,51.47h23q5.75,0,8.35,3.1t2.6,9.94v5.87a19.09,19.09,0,0,1-1.51,8.41,7.54,7.54,0,0,1-4.79,4l6.85,14.34H289.84l-6.3-13.69h-7.67V97.11H266Zm24.1,13q0-3.91-3.29-3.91h-11V74.29h11q3.29,0,3.29-3.91Z" transform="translate(-7.05 -6.02)"/><path class="cls-2" d="M334.47,97.11H304.08V51.47h30.39V60.6H313.93v8.8h16.16v9.13H313.93V88h20.54Z" transform="translate(-7.05 -6.02)"/><polygon class="cls-2" points="403.97 78.48 403.97 60.47 388.37 51.46 372.77 60.47 372.77 78.48 388.37 87.49 403.97 78.48"/><polygon class="cls-2" points="384.67 46.06 385.44 29.68 361.74 22.34 355.83 46.45 370.95 53.99 384.67 46.06"/><polygon class="cls-2" points="405.88 54.04 420.95 47.02 415.21 22.89 391.45 30.07 391.74 45.88 405.88 54.04"/><polygon class="cls-2" points="423.77 52.13 410.2 60.64 410.2 77.34 424.01 86.15 441.95 69.03 423.77 52.13"/><polygon class="cls-2" points="406.3 84 391.73 92.41 391.45 107.78 415.21 114.96 420.95 90.83 406.3 84"/><polygon class="cls-2" points="370.54 84.06 355.83 91.4 361.74 115.5 385.44 108.17 384.69 92.23 370.54 84.06"/><polygon class="cls-2" points="366.54 61.25 351.99 52.13 334.05 69.26 352.23 86.15 366.54 77.36 366.54 61.25"/></svg>