<svg id="Calque_11_-_copie_13" data-name="Calque 11 - copie 13" xmlns="http://www.w3.org/2000/svg" viewBox="0 0 458.43 140"><defs><style>.cls-1{fill:#68a090;}.cls-2{fill:#fff;}</style></defs><title>inconnu</title><path class="cls-1" d="M20.4,0H386.07a0,0,0,0,1,0,0V139.36a.64.64,0,0,1-.64.64H20.4A20.4,20.4,0,0,1,0,119.6V20.4A20.4,20.4,0,0,1,20.4,0Z"/><circle class="cls-1" cx="388.43" cy="70" r="70"/><path class="cls-2" d="M64.79,97.11H42.26V88h5.63V60.6H42.26V51.47H64.79V60.6H59.16V88h5.63Z" transform="translate(-7.05 -6.02)"/><path class="cls-2" d="M107.54,97.11H95.65l-15-27.38V97.11H69.36V51.47H81.25l15,27.38V51.47h11.27Z" transform="translate(-7.05 -6.02)"/><path class="cls-2" d="M124.63,97.31q-6.13,0-9-3T112.74,85V64.38q0-6.78,3-9.84t9.54-3.07h22.53V60.6h-20q-3.76,0-3.76,3.89V85.26a3.27,3.27,0,0,0,.85,2.37,3,3,0,0,0,2.28.88h9.42A10.32,10.32,0,0,0,139.9,88h7.89v8.52a42.58,42.58,0,0,1-8.32.83H124.63Z" transform="translate(-7.05 -6.02)"/><path class="cls-2" d="M191.16,84.72q0,6.85-3,9.94t-9.54,3.1H163q-6.57,0-9.54-3.1t-3-9.94V63.86q0-6.85,3-9.94t9.54-3.1h15.65q6.57,0,9.54,3.1t3,9.94ZM179.89,63.86q0-3.91-3.76-3.91H165.5q-3.76,0-3.76,3.91V84.72q0,3.91,3.76,3.91h10.64q3.76,0,3.76-3.91Z" transform="translate(-7.05 -6.02)"/><path class="cls-2" d="M234.53,97.11H222.64l-15-27.38V97.11H196.35V51.47h11.89l15,27.38V51.47h11.27Z" transform="translate(-7.05 -6.02)"/><path class="cls-2" d="M279.16,97.11H267.27l-15-27.38V97.11H241V51.47h11.89l15,27.38V51.47h11.27Z" transform="translate(-7.05 -6.02)"/><path class="cls-2" d="M313.77,51.47H325V84.72q0,6.85-3,9.94t-9.54,3.1h-14.4q-6.57,0-9.54-3.1t-3-9.94V51.47h11.27V84.72q0,3.91,3.76,3.91H310q3.76,0,3.76-3.91Z" transform="translate(-7.05 -6.02)"/><path class="cls-2" d="M343.42,48a34.37,34.37,0,0,1,6.88-1.74,49.61,49.61,0,0,1,7.08-.5,24.87,24.87,0,0,1,5.59.66,15.61,15.61,0,0,1,5.19,2.21,12.26,12.26,0,0,1,3.79,4,11.88,11.88,0,0,1,1.46,6.13,13.39,13.39,0,0,1-.77,4.69,20.48,20.48,0,0,1-1.9,3.84,29.09,29.09,0,0,1-2.49,3.37A36,36,0,0,0,365.7,74a23.18,23.18,0,0,0-2.06,3.8,14.36,14.36,0,0,0-1.06,4.57h-9.71a14.72,14.72,0,0,1,1.33-6.47,36.55,36.55,0,0,1,3-5.08q1.63-2.33,3-4.54a9.09,9.09,0,0,0,1.33-4.77,4.44,4.44,0,0,0-.7-2.52A6.15,6.15,0,0,0,359,57.3a7.43,7.43,0,0,0-2.36-1,10.78,10.78,0,0,0-2.49-.31,20.18,20.18,0,0,0-10.44,2.87Zm8.71,40.24h11.17V100.8H352.13Z" transform="translate(-7.05 -6.02)"/><path class="cls-2" d="M380.4,48a34.37,34.37,0,0,1,6.88-1.74,49.61,49.61,0,0,1,7.08-.5,24.87,24.87,0,0,1,5.59.66,15.61,15.61,0,0,1,5.19,2.21,12.26,12.26,0,0,1,3.79,4,11.88,11.88,0,0,1,1.46,6.13,13.39,13.39,0,0,1-.77,4.69,20.48,20.48,0,0,1-1.9,3.84,29.09,29.09,0,0,1-2.49,3.37A36,36,0,0,0,402.69,74a23.18,23.18,0,0,0-2.06,3.8,14.36,14.36,0,0,0-1.06,4.57h-9.71a14.72,14.72,0,0,1,1.33-6.47,36.55,36.55,0,0,1,3-5.08q1.63-2.33,3-4.54a9.09,9.09,0,0,0,1.33-4.77,4.44,4.44,0,0,0-.7-2.52A6.15,6.15,0,0,0,396,57.3a7.43,7.43,0,0,0-2.36-1,10.78,10.78,0,0,0-2.49-.31,20.18,20.18,0,0,0-10.44,2.87Zm8.71,40.24h11.17V100.8H389.12Z" transform="translate(-7.05 -6.02)"/><path class="cls-2" d="M417.39,48a34.37,34.37,0,0,1,6.88-1.74,49.61,49.61,0,0,1,7.08-.5,24.87,24.87,0,0,1,5.59.66,15.61,15.61,0,0,1,5.19,2.21,12.26,12.26,0,0,1,3.79,4,11.88,11.88,0,0,1,1.46,6.13,13.39,13.39,0,0,1-.77,4.69,20.48,20.48,0,0,1-1.9,3.84,29.09,29.09,0,0,1-2.49,3.37A36,36,0,0,0,439.67,74a23.18,23.18,0,0,0-2.06,3.8,14.36,14.36,0,0,0-1.06,4.57h-9.71a14.72,14.72,0,0,1,1.33-6.47,36.55,36.55,0,0,1,3-5.08q1.63-2.33,3-4.54a9.09,9.09,0,0,0,1.33-4.77,4.44,4.44,0,0,0-.7-2.52A6.15,6.15,0,0,0,433,57.3a7.43,7.43,0,0,0-2.36-1A10.78,10.78,0,0,0,428.1,56a20.18,20.18,0,0,0-10.44,2.87Zm8.71,40.24h11.17V100.8H426.1Z" transform="translate(-7.05 -6.02)"/></svg>