<svg id="Calque_12" data-name="Calque 12" xmlns="http://www.w3.org/2000/svg" viewBox="0 0 458.43 140"><defs><style>.cls-1{fill:#36a9e1;}.cls-2{fill:#fff;}</style></defs><title>eau-vecto</title><path class="cls-1" d="M20.4,0H386.07a0,0,0,0,1,0,0V139.36a.64.64,0,0,1-.64.64H20.4A20.4,20.4,0,0,1,0,119.6V20.4A20.4,20.4,0,0,1,20.4,0Z"/><circle class="cls-1" cx="388.43" cy="70" r="70"/><path class="cls-2" d="M80.48,97.11H44.29V51.47H80.48V60.6H56v8.8H75.26v9.13H56V88H80.48Z" transform="translate(-7.05 -6.02)"/><path class="cls-2" d="M93.84,97.11H81.13L98.41,51.47h13l17.28,45.64H116L113.08,89H96.78Zm5.87-16.62h10.43l-5.22-15.32Z" transform="translate(-7.05 -6.02)"/><path class="cls-2" d="M160,51.47h11.74V84.72q0,6.85-3.1,9.94t-9.94,3.1h-15q-6.85,0-9.94-3.1t-3.1-9.94V51.47h11.74V84.72q0,3.91,3.91,3.91h9.78q3.91,0,3.91-3.91Z" transform="translate(-7.05 -6.02)"/><path class="cls-2" d="M394.39,30.28S364.73,67.64,364.73,93.6a29.66,29.66,0,1,0,59.32,0C424,67.93,394.39,30.28,394.39,30.28Zm-11,60.38c-1.1,7.29-4.74,12.79-8.15,12.27S370,96.1,371.11,88.81s4.74-12.79,8.15-12.27S384.53,83.37,383.44,90.66Z" transform="translate(-7.05 -6.02)"/></svg>