<svg id="Calque_12" data-name="Calque 12" xmlns="http://www.w3.org/2000/svg" viewBox="0 0 458.43 140"><defs><style>.cls-1{fill:#36a9e1;}.cls-2{fill:#fff;}</style></defs><title>eau-vecto</title><path class="cls-1" d="M20.4,0H386.07a0,0,0,0,1,0,0V139.36a.64.64,0,0,1-.64.64H20.4A20.4,20.4,0,0,1,0,119.6V20.4A20.4,20.4,0,0,1,20.4,0Z"/><circle class="cls-1" cx="388.43" cy="70" r="70"/><path class="cls-2" d="M44.6,88.22V64.93q0-6.64,3.87-9.54,3.39-2.56,10.23-2.56H76.4v7H56a3.81,3.81,0,0,0-3.18,1.66,6,6,0,0,0-1.24,3.66v8.23H76.33v7H51.58v9.52a3.08,3.08,0,0,0,.35,1.39A4.74,4.74,0,0,0,55,94a20.52,20.52,0,0,0,4.29.28H76.2v7H57.46Q44.6,101.22,44.6,88.22Z" transform="translate(-7.05 -6.02)"/><path class="cls-2" d="M79.1,101.22l16.11-43.9q1.87-5,5.39-5,4,0,5.88,5l16,43.84H115l-3.75-10.09h-21l-3.78,10.09Zm29.63-17.08-8.08-22-7.85,22Z" transform="translate(-7.05 -6.02)"/><path class="cls-2" d="M126.11,89.33V52.83h7V88.43q0,5.81,5.34,5.81h9.92A5.51,5.51,0,0,0,152.41,93a5.82,5.82,0,0,0,1.21-4.15v-36h7v36.5q0,8-7.05,11a10.7,10.7,0,0,1-4.15.9h-12a11.35,11.35,0,0,1-4.29-.9Q126.11,97.49,126.11,89.33Z" transform="translate(-7.05 -6.02)"/><path class="cls-2" d="M394.39,30.28S364.73,67.64,364.73,93.6a29.66,29.66,0,1,0,59.32,0C424,67.93,394.39,30.28,394.39,30.28Zm-11,60.38c-1.1,7.29-4.74,12.79-8.15,12.27S370,96.1,371.11,88.81s4.74-12.79,8.15-12.27S384.53,83.37,383.44,90.66Z" transform="translate(-7.05 -6.02)"/></svg>